<svg width="512" height="512" viewBox="0 0 512 512" fill="none" xmlns="http://www.w3.org/2000/svg">
<path d="M344 280L432 192M232 216L296 280M80 320L184 216" stroke="url(#paint0_linear_155_2)" stroke-width="32" stroke-linecap="round" stroke-linejoin="round"/>
<path d="M456 192C469.255 192 480 181.255 480 168C480 154.745 469.255 144 456 144C442.745 144 432 154.745 432 168C432 181.255 442.745 192 456 192Z" stroke="url(#paint1_linear_155_2)" stroke-width="32" stroke-linecap="round" stroke-linejoin="round"/>
<path d="M320 328C333.255 328 344 317.255 344 304C344 290.745 333.255 280 320 280C306.745 280 296 290.745 296 304C296 317.255 306.745 328 320 328Z" stroke="url(#paint2_linear_155_2)" stroke-width="32" stroke-linecap="round" stroke-linejoin="round"/>
<path d="M208 216C221.255 216 232 205.255 232 192C232 178.745 221.255 168 208 168C194.745 168 184 178.745 184 192C184 205.255 194.745 216 208 216Z" stroke="url(#paint3_linear_155_2)" stroke-width="32" stroke-linecap="round" stroke-linejoin="round"/>
<path d="M56 368C69.2548 368 80 357.255 80 344C80 330.745 69.2548 320 56 320C42.7452 320 32 330.745 32 344C32 357.255 42.7452 368 56 368Z" stroke="url(#paint4_linear_155_2)" stroke-width="32" stroke-linecap="round" stroke-linejoin="round"/>
<defs>
<linearGradient id="paint0_linear_155_2" x1="256" y1="192" x2="256" y2="320" gradientUnits="userSpaceOnUse">
<stop offset="0.26" stop-color="#FFDB6E"/>
<stop offset="1" stop-color="#FFBC5E"/>
</linearGradient>
<linearGradient id="paint1_linear_155_2" x1="456" y1="144" x2="456" y2="192" gradientUnits="userSpaceOnUse">
<stop offset="0.26" stop-color="#FFDB6E"/>
<stop offset="1" stop-color="#FFBC5E"/>
</linearGradient>
<linearGradient id="paint2_linear_155_2" x1="320" y1="280" x2="320" y2="328" gradientUnits="userSpaceOnUse">
<stop offset="0.26" stop-color="#FFDB6E"/>
<stop offset="1" stop-color="#FFBC5E"/>
</linearGradient>
<linearGradient id="paint3_linear_155_2" x1="208" y1="168" x2="208" y2="216" gradientUnits="userSpaceOnUse">
<stop offset="0.26" stop-color="#FFDB6E"/>
<stop offset="1" stop-color="#FFBC5E"/>
</linearGradient>
<linearGradient id="paint4_linear_155_2" x1="56" y1="320" x2="56" y2="368" gradientUnits="userSpaceOnUse">
<stop offset="0.26" stop-color="#FFDB6E"/>
<stop offset="1" stop-color="#FFBC5E"/>
</linearGradient>
</defs>
</svg>
