<svg width="209" height="131" viewBox="0 0 209 131" fill="none" xmlns="http://www.w3.org/2000/svg">
<path fill-rule="evenodd" clip-rule="evenodd" d="M99.004 6.54389C98.8167 6.56989 97.706 6.66798 96.5356 6.76198C95.3653 6.85582 93.7566 7.04264 92.9608 7.17676C91.6456 7.39843 91.0935 7.50705 88.9604 7.96381C87.4898 8.27863 83.1962 9.7125 81.6405 10.4083C79.8018 11.2305 77.1607 12.4638 76.874 12.6339C76.6868 12.7451 75.5377 13.4264 74.3205 14.1479C67.4831 18.2011 60.8648 24.6218 56.3071 31.624C55.7751 32.4412 55.3398 33.1473 55.3398 33.1932C55.3398 33.2389 55.0818 33.6794 54.7662 34.1722C53.9266 35.4833 51.9075 39.5493 51.0127 41.7304C50.04 44.1023 48.8716 47.7006 48.0427 50.8769C47.6609 52.3403 47.0241 55.9207 46.7425 58.1865C46.4948 60.1801 46.4609 61.5043 46.534 66.346C46.5946 70.3742 46.702 72.6407 46.8884 73.8255C48.5347 84.2952 51.4981 92.0726 56.9276 100.174C58.0252 101.812 58.2671 102.129 60.3496 104.656C63.5764 108.572 66.7749 111.59 70.7306 114.453C76.6849 118.763 84.9538 122.436 90.9606 123.44C95.1299 124.137 95.9344 124.24 98.4933 124.405C102.299 124.651 105.908 124.425 110.58 123.648C111.422 123.507 112.418 123.344 112.793 123.284C114.174 123.065 119.242 121.361 121.474 120.366C125.743 118.462 128.529 116.922 131.238 114.969C132.02 114.405 132.844 113.822 133.069 113.673C135.051 112.363 140.64 106.91 142.898 104.084C145.423 100.923 147.954 96.9591 149.717 93.4038C150.606 91.6112 151.499 89.7238 151.7 89.2096C151.901 88.6954 152.168 88.0452 152.292 87.7647C153.068 86.0145 154.75 80.0992 154.757 79.0952C154.763 78.2536 155.231 75.9235 155.577 75.0155C155.755 74.548 155.866 74.07 155.824 73.953C155.763 73.7849 151.732 73.738 136.483 73.7286C125.888 73.722 117.073 73.6594 116.894 73.5896C116.625 73.484 116.739 73.3681 117.575 72.8982C118.128 72.5877 118.763 72.1912 118.987 72.0172C119.362 71.7245 119.779 71.7007 124.541 71.7007C130.254 71.7007 130.215 71.7083 129.941 70.6528L129.794 70.0858L126.783 70.0393C124.15 69.9987 123.773 69.9586 123.773 69.7194C123.773 69.5692 124.297 68.7104 124.937 67.8109C125.577 66.9117 126.956 64.977 128.001 63.5116C129.815 60.9673 129.901 60.8087 129.901 59.9921C129.901 59.1479 129.893 59.1353 129.3 59.0243C128.291 58.8353 119.817 59.0279 119.415 59.2489C119.135 59.4032 118.983 59.3922 118.705 59.1979C117.43 58.3058 115.917 57.7861 114.176 57.642C112.109 57.4708 109.419 58.606 107.892 60.2937C107.545 60.6773 107.201 60.9913 107.128 60.9913C107.055 60.9913 106.73 60.7115 106.407 60.3695C105.3 59.1969 104.739 59.0609 100.694 58.9832C97.5044 58.9222 97.0759 58.9461 96.8216 59.2001C96.5647 59.4566 96.5356 60.089 96.5356 65.4172C96.5356 71.1076 96.5491 71.3559 96.8649 71.5247C97.2464 71.7285 99.5851 71.7588 99.8924 71.5638C100.034 71.4742 100.115 70.73 100.148 69.229L100.196 67.0259H100.621C100.994 67.0259 101.111 67.19 101.57 68.353C102.161 69.8535 103.25 71.4649 103.766 71.6034C103.956 71.6544 104.764 71.6971 105.562 71.6983C106.62 71.7 107.12 71.6269 107.403 71.4287C107.823 71.1346 107.743 71.0991 108.843 72.0677C109.019 72.2229 109.636 72.6053 110.212 72.9176L111.261 73.4855L107.317 73.5705C105.148 73.6173 103.316 73.7128 103.245 73.783C103.175 73.8532 103.226 73.911 103.359 73.9115C103.492 73.9122 103.828 74.0314 104.107 74.1767C104.386 74.3219 105.344 74.5871 106.235 74.7661C107.127 74.9449 108.162 75.1715 108.537 75.2694C110.458 75.7717 112.192 76.2768 112.622 76.4588C112.81 76.5382 113.501 76.8005 114.159 77.0419C116.77 78.0001 119.242 79.9623 120.065 81.7301C120.757 83.2181 120.95 84.7916 120.648 86.5042C120.336 88.2759 120.168 88.7192 119.403 89.7815C118.397 91.1808 117.136 92.1237 115.188 92.9332C113.325 93.7079 112.227 93.963 109.218 94.3205C105.767 94.7304 104.362 94.7305 102.238 94.3217C97.5332 93.4162 93.298 91.0491 89.2896 87.0847C86.5057 84.3314 85.4215 82.8896 84.08 80.1576C83.7243 79.4332 83.3319 78.8402 83.2079 78.8402C83.0842 78.8402 81.5177 80.3128 79.7272 82.1125C74.694 87.1716 73.2141 88.7501 73.2141 89.0595C73.2141 89.4291 77.1122 93.17 79.087 94.6957C81.9156 96.8807 85.4315 99.0032 87.8539 99.9881C88.2752 100.159 88.7731 100.363 88.9604 100.442C89.9132 100.839 92.933 101.744 93.9822 101.947C94.4035 102.028 95.361 102.212 96.1101 102.356C99.0809 102.926 100.775 103.051 105.643 103.057C111.056 103.064 113.155 102.893 117.158 102.116C129.23 99.7736 135.862 93.1853 136.89 82.5164C137.087 80.4669 137.027 77.0642 136.774 75.911C136.688 75.5195 136.743 75.4195 137.127 75.2735C137.642 75.0782 153.372 75.058 154.074 75.2519C154.637 75.4076 154.689 75.8797 154.329 77.5653C153.56 81.1546 151.973 85.7406 150.156 89.624C149.529 90.9637 147.365 94.7781 146.438 96.1792C144.911 98.4859 141.855 102.298 140.375 103.744C138.133 105.933 136.772 107.145 134.807 108.704C131.623 111.229 126.409 114.272 122.666 115.788C122.011 116.054 121.321 116.334 121.134 116.41C120.688 116.592 119.288 117.015 118.325 117.258C117.904 117.364 117.214 117.561 116.793 117.695C116.372 117.83 115.879 117.939 115.699 117.939C115.518 117.938 115.135 118.009 114.848 118.095C114.56 118.181 113.75 118.342 113.048 118.452C112.346 118.561 111.273 118.729 110.665 118.825C108.931 119.097 103.647 119.174 101.302 118.961C98.7028 118.725 95.2327 118.15 93.5566 117.679C93.0885 117.547 91.8802 117.21 90.8716 116.929C88.7949 116.352 85.5992 115.053 83.4388 113.907C82.637 113.482 81.5213 112.894 80.9595 112.6C80.1125 112.156 76.7954 110.043 76.1931 109.562C76.0995 109.488 75.7869 109.257 75.4987 109.05C75.0141 108.702 74.4586 108.236 72.1254 106.224C66.9439 101.754 61.8311 94.5636 58.6975 87.3397C57.8947 85.489 56.8906 82.6222 56.2865 80.4551C56.13 79.8942 55.9348 79.2057 55.8527 78.9252C55.5565 77.9145 54.8465 73.9683 54.7362 72.7206C54.6742 72.0194 54.5498 71.1014 54.4597 70.6807C54.193 69.4355 54.2698 61.0685 54.5711 58.5343C54.8365 56.3018 54.8845 56.0191 55.5252 52.9168C56.0128 50.5566 56.1084 50.1687 56.4884 49.007C56.6719 48.446 56.9613 47.5053 57.1317 46.9165C57.3021 46.3276 57.5048 45.8068 57.5823 45.759C57.6597 45.7112 57.7231 45.5399 57.7231 45.3782C57.7231 44.9252 59.2499 41.4275 60.48 39.0626C61.837 36.4534 62.8468 34.8324 65.1921 31.4981C66.6217 29.4657 69.2977 26.5459 72.3081 23.7341C74.0678 22.0903 78.6446 18.7206 80.4489 17.7401C84.4082 15.5887 87.7078 14.154 91.0031 13.1509C92.1267 12.8089 93.3021 12.4485 93.6153 12.3499C93.9286 12.2511 94.5797 12.1088 95.0623 12.0335C95.5449 11.9581 96.6843 11.7767 97.594 11.6303C100.146 11.2198 105.072 11.0066 107.835 11.1872C111.384 11.419 113.118 11.6395 115.261 12.1315C115.87 12.2712 116.674 12.4549 117.048 12.5398C117.686 12.6843 118.717 13.0241 121.948 14.1547C123.561 14.7195 128.57 17.1936 130.021 18.1426C130.602 18.5227 131.118 18.8338 131.167 18.8338C131.349 18.8338 135.647 21.9837 136.71 22.8966C140.779 26.3922 144.833 31.2196 147.646 35.9178C150.039 39.9144 151.727 43.7258 153.144 48.327C153.403 49.1685 153.718 50.1847 153.844 50.5854C153.97 50.986 154.074 51.4987 154.074 51.7248C154.074 51.9509 154.142 52.3116 154.225 52.5263C154.388 52.9477 154.686 54.2536 154.838 55.2116C155.017 56.3411 155.178 56.3076 149.101 56.4016C144.366 56.4748 143.604 56.5219 143.604 56.7415C143.604 57.1169 145.703 57.1808 154.755 57.0815C161.488 57.0076 162.5 56.9632 162.5 56.7415C162.5 56.5253 162.004 56.4796 159.241 56.4405C156.791 56.4058 155.935 56.3385 155.795 56.1695C155.627 55.9679 155.38 54.8715 154.486 50.3669C154.101 48.4273 152.772 44.3547 151.573 41.4425C151.01 40.0734 148.863 35.8013 147.985 34.3029C145.859 30.6726 143.313 27.2357 140.418 24.0858C137.461 20.8681 134.962 18.6686 131.433 16.1752C125.073 11.682 116.693 8.16015 110.226 7.26192C109.487 7.15925 108.826 7.04026 108.756 6.99725C108.352 6.74787 100.248 6.37101 99.004 6.54389ZM105.379 8.64496C107.7 8.93275 112.714 9.79256 113.644 10.0623C116.381 10.8564 117.099 11.0772 117.559 11.2648C117.84 11.3794 118.338 11.5701 118.666 11.6886C119.684 12.057 120.349 12.3764 120.456 12.5488C120.512 12.6397 120.748 12.7142 120.979 12.7142C121.211 12.7142 121.444 12.8289 121.498 12.9692C121.552 13.1094 121.722 13.2303 121.876 13.2376C122.03 13.2449 122.07 13.2862 121.965 13.3294C121.86 13.3724 121.439 13.2838 121.028 13.1325C120.618 12.9812 120.015 12.7922 119.687 12.7125C118.049 12.3142 116.947 12.0408 115.942 11.783C113.975 11.2784 113.184 11.1588 110.154 10.9075C104.975 10.478 104.324 10.4577 102.409 10.6653C101.379 10.777 99.6934 10.9289 98.6635 11.0031C97.6336 11.0772 96.1399 11.3036 95.344 11.5062C92.7798 12.1592 92.5434 12.2224 92.0245 12.3948C91.7436 12.4883 91.0159 12.7055 90.4073 12.878C89.1522 13.2335 87.4901 13.84 86.2367 14.4C84.7332 15.0716 81.8189 16.4548 81.5553 16.6217C81.4149 16.7106 80.9936 16.9294 80.6191 17.1076C80.2446 17.2859 79.7689 17.5942 79.5623 17.7928C79.3555 17.9913 79.1386 18.1539 79.0802 18.1539C78.833 18.1539 75.5389 20.4589 73.8221 21.8333C71.8667 23.3985 67.2682 27.891 66.4557 29.0298C66.1936 29.397 65.3121 30.6083 64.4965 31.7216C63.6811 32.8349 62.5876 34.4256 62.0665 35.2567C61.0724 36.8424 57.8933 43.1449 57.8933 43.5304C57.8933 43.6535 57.8261 43.8271 57.7438 43.9158C57.6618 44.0045 57.3838 44.7275 57.1261 45.5222C56.8685 46.3169 56.5623 47.2349 56.4455 47.5621C55.8822 49.1416 55.3397 50.992 55.338 51.3398C55.3369 51.5526 55.2256 52.0903 55.0906 52.5346C54.9556 52.979 54.6867 54.4707 54.4929 55.8494C54.2992 57.2282 54.0274 59.069 53.8891 59.9399C53.602 61.7477 53.5579 67.5012 53.8166 69.4058C53.9056 70.0603 54.0517 71.2459 54.1414 72.0406C54.338 73.7842 54.5466 75.0763 54.9228 76.8853C55.0784 77.6333 55.2612 78.513 55.3291 78.8402C55.3972 79.1675 55.5371 79.7029 55.6401 80.0302C55.7431 80.3574 55.9191 80.9693 56.0313 81.3901C56.2846 82.3408 56.7236 83.6288 56.8714 83.8549C56.9325 83.9484 57.0798 84.3691 57.1988 84.7899C57.4531 85.69 57.6105 86.0747 58.8343 88.7846C60.6291 92.7587 62.2808 95.5298 65.0103 99.1464C67.3343 102.226 70.3765 105.452 73.0438 107.666C73.9333 108.404 74.7512 109.093 74.8614 109.199C74.9717 109.303 76.2957 110.21 77.804 111.214C83.5722 115.052 89.2477 117.371 96.1101 118.695C98.8368 119.221 100.806 119.37 104.962 119.364C110.029 119.358 112.2 119.129 115.857 118.213C119.411 117.324 121.502 116.673 123.943 115.697C125.853 114.933 130.316 112.675 131.092 112.08C131.233 111.972 131.571 111.789 131.845 111.672C132.311 111.472 132.327 111.478 132.1 111.764C131.967 111.931 131.705 112.203 131.518 112.368C131.192 112.655 128.149 114.78 127.559 115.133C127.403 115.227 126.984 115.477 126.628 115.689C123.78 117.388 117.179 120.318 116.198 120.318C116.001 120.318 115.767 120.383 115.678 120.463C115.589 120.542 114.597 120.814 113.474 121.068C112.35 121.321 111.124 121.608 110.75 121.705C110.064 121.883 109.076 122.006 105.643 122.344C103.294 122.574 99.1667 122.576 97.0463 122.347C93.2904 121.943 92.6517 121.855 91.599 121.598C90.9904 121.45 90.1094 121.255 89.6413 121.165C89.1732 121.074 88.3688 120.878 87.8539 120.729C87.3389 120.581 86.6878 120.397 86.4069 120.321C83.5782 119.561 77.8573 116.841 73.9801 114.413C70.9287 112.502 68.501 110.524 65.2743 107.321C59.8317 101.919 55.9353 96.159 52.9646 89.1246C52.8856 88.9376 52.7072 88.5169 52.5678 88.1897C52.4286 87.8624 52.1472 87.0975 51.9425 86.4898C51.7379 85.8821 51.4678 85.1553 51.3421 84.8749C51.2167 84.5944 51.0216 84.0207 50.9089 83.5999C50.7962 83.1792 50.6285 82.6055 50.5364 82.325C49.6912 79.7514 48.8217 75.1008 48.5022 71.4457C48.2657 68.7405 48.2635 61.5711 48.4984 59.1214C48.9502 54.4096 50.6187 47.2208 51.7825 44.9721C51.8665 44.8098 51.9352 44.5601 51.9352 44.4173C51.9352 44.2745 52.0069 44.0248 52.0946 43.8624C52.4025 43.2918 52.7864 42.4087 52.7864 42.271C52.7864 41.8384 55.3569 36.7157 56.1874 35.4928C56.3462 35.2591 56.5263 34.9531 56.5878 34.8129C56.7202 34.5106 56.8426 34.3189 58.046 32.5265C58.5514 31.7738 59.1833 30.8793 59.4504 30.5386C59.7175 30.198 59.9361 29.8667 59.9361 29.8026C59.9361 29.6419 62.3378 26.8051 63.5901 25.4865C65.3857 23.5959 67.8133 21.2713 69.0145 20.2923C70.4081 19.1563 74.1544 16.454 74.3355 16.454C74.4062 16.454 74.5849 16.3467 74.7327 16.2156C75.409 15.6159 80.4815 12.9479 81.5553 12.627C81.7894 12.5571 82.2873 12.3643 82.6618 12.1986C84.7681 11.2672 89.3454 9.88623 91.599 9.50256C92.7943 9.29908 95.9294 8.84793 97.4719 8.65771C99.2091 8.44318 103.694 8.43604 105.379 8.64496ZM96.2531 15.8685C96.1972 16.0138 96.2051 16.492 96.2706 16.9309C96.5293 18.6638 96.7139 19.9952 96.8645 21.215C96.9512 21.9171 97.112 23.0071 97.2218 23.6374C97.4067 24.6968 97.4542 24.7835 97.8515 24.7835C98.2705 24.7835 98.2785 24.7612 98.1704 23.891C98.1094 23.4002 97.9914 22.4248 97.9082 21.7236C97.492 18.2152 97.1907 16.2134 97.0356 15.9241C96.8278 15.5362 96.3926 15.5052 96.2531 15.8685ZM99.3494 16.2761C99.1606 16.5811 99.4357 17.1577 99.7419 17.0987C100.122 17.0258 100.123 16.2224 99.7433 16.1493C99.5882 16.1196 99.4108 16.1765 99.3494 16.2761ZM90.8978 18.0933C90.7493 18.2717 90.6227 19.0857 90.5471 20.3457C90.1666 26.6862 90.1728 26.3134 90.4497 26.3134C90.6165 26.3134 90.751 26.0846 90.8244 25.6759C91.1351 23.9452 91.2236 23.786 91.9871 23.5821C92.3822 23.4766 92.7981 23.3146 92.9113 23.2219C93.3384 22.8724 94.0542 23.2532 94.6662 24.1555C95.0351 24.6993 95.4111 25.0594 95.645 25.0928C96.2571 25.1802 96.1213 24.4984 95.2763 23.2405C94.8645 22.6275 94.054 21.3277 93.4752 20.3523C91.9752 17.8241 91.4813 17.3911 90.8978 18.0933ZM99.5063 18.3374C99.3778 18.5452 99.5749 22.9207 99.7521 23.7905C99.8332 24.189 99.9738 24.3738 100.223 24.41C100.722 24.4824 100.806 24.1198 100.622 22.6997C100.534 22.0227 100.459 20.8708 100.456 20.14C100.453 19.4094 100.372 18.6635 100.275 18.4826C100.082 18.1227 99.6854 18.0479 99.5063 18.3374ZM102.936 18.7063C102.895 18.9168 102.787 20.1597 102.697 21.4687C102.53 23.8774 102.606 24.4435 103.092 24.4435C103.396 24.4435 103.445 24.207 103.688 21.5536C103.896 19.2843 104.083 18.8338 104.818 18.8338C105.038 18.8338 105.373 18.9892 105.563 19.1792C105.89 19.5058 105.903 19.6567 105.795 21.9434C105.698 23.9884 105.72 24.395 105.937 24.5749C106.42 24.975 106.613 24.3869 106.749 22.1066C106.82 20.9143 106.932 19.8102 106.998 19.6532C107.179 19.2207 107.986 18.9946 108.473 19.2401C108.877 19.4437 108.877 19.4482 108.819 22.1138L108.762 24.7835H109.186C109.578 24.7835 109.617 24.7085 109.707 23.806C110.087 19.9731 110.033 19.2598 109.318 18.7118C108.97 18.4456 108.081 18.4374 107.514 18.6953C107.151 18.8607 106.986 18.8455 106.587 18.6103C106.042 18.2892 105.396 18.2477 104.58 18.4813C104.243 18.578 103.993 18.578 103.933 18.4813C103.879 18.3947 103.65 18.3238 103.423 18.3238C103.131 18.3238 102.989 18.4355 102.936 18.7063ZM92.5574 20.8013C93.5083 22.372 93.5307 22.5685 92.7906 22.8396C91.8706 23.1764 91.2997 23.1408 91.1718 22.7386C91.0649 22.4024 91.2003 20.4147 91.3717 19.8019C91.5106 19.306 91.7998 19.55 92.5574 20.8013ZM113.324 19.6938C111.429 20.2442 110.525 23.8827 111.955 25.2057C112.576 25.7804 113.764 26.0704 114.408 25.8042C115.162 25.4923 115.034 25.2934 114.079 25.2934C112.941 25.2934 112.367 24.8095 112.247 23.7513C112.131 22.7227 112.396 22.4949 113.412 22.749C115.679 23.3161 115.648 23.313 115.887 22.9863C116.504 22.1442 115.894 19.9542 114.992 19.7684C114.025 19.5694 113.788 19.5588 113.324 19.6938ZM115.079 20.6874C115.51 21.291 115.526 21.7442 115.133 22.2088C114.864 22.5274 114.761 22.5437 114.069 22.3776C113.648 22.2766 113.188 22.1376 113.048 22.0689C112.242 21.6743 113.132 20.1937 114.175 20.1937C114.59 20.1937 114.814 20.3161 115.079 20.6874ZM118.332 21.411C118.142 21.7231 117.986 22.0617 117.985 22.1632C117.985 22.2649 117.633 23.2425 117.202 24.3359C116.433 26.2918 116.361 26.8233 116.868 26.8233C117.179 26.8233 117.485 26.2537 118.267 24.214C119.077 22.1041 119.228 21.8936 119.931 21.8936C120.366 21.8936 120.616 22.0221 120.949 22.4167C121.191 22.7043 121.389 22.9911 121.388 23.0541C121.386 23.2991 121.005 24.5541 120.785 25.0384C120.299 26.1099 119.857 27.3585 119.857 27.6614C119.857 28.0831 120.296 28.2307 120.612 27.9153C120.752 27.776 120.939 27.4157 121.029 27.115C121.119 26.8143 121.358 26.1476 121.561 25.6334C122.482 23.3027 122.502 23.1857 122.091 22.5226C121.727 21.9332 120.631 21.3837 119.821 21.3837C119.647 21.3837 119.319 21.2621 119.092 21.1135C118.692 20.8521 118.668 20.8616 118.332 21.411ZM125.228 22.6387C124.889 22.977 124.538 23.2535 124.448 23.2535C124.357 23.2535 124.283 23.4553 124.283 23.7018C124.283 23.9483 123.824 25.0148 123.262 26.072C122.235 28.0044 122.103 28.4586 122.404 29.0203C122.658 29.4944 123.401 29.9173 123.693 29.754C123.91 29.6328 123.898 29.5588 123.605 29.2448C123.128 28.7338 123.175 28.2342 123.809 27.0661C124.11 26.5117 124.514 25.759 124.708 25.3932C125.164 24.5331 125.534 24.2927 125.977 24.5688C126.488 24.8873 126.602 24.4928 126.141 24.0025C125.78 23.619 125.767 23.5391 125.97 22.9782C126.308 22.0429 125.977 21.8911 125.228 22.6387ZM82.7608 22.6836C82.1559 22.9845 81.8143 23.2887 81.6187 23.7004C81.3557 24.2536 81.3582 24.3238 81.6602 24.8982C82.0391 25.619 82.8287 26.0081 83.833 25.9691C84.9266 25.9266 85.0875 25.955 85.3734 26.2404C85.7755 26.6421 85.6974 27.1331 85.1433 27.6864C84.7746 28.0546 84.4843 28.1833 84.0227 28.1833C83.1994 28.1833 83.3114 28.5888 84.1543 28.6604C85.4267 28.7684 86.4776 27.8582 86.4864 26.6404C86.4908 26.0201 86.4032 25.7794 86.0534 25.451C85.676 25.0971 85.4439 25.0381 84.3936 25.0303C82.9141 25.0191 82.4065 24.786 82.4065 24.1183C82.4065 23.5777 82.7207 23.2512 83.4836 22.9987C83.7665 22.9052 84.0262 22.7424 84.0606 22.637C84.1883 22.2458 83.5979 22.2669 82.7608 22.6836ZM77.4552 25.9486C76.7552 26.5689 76.7159 26.6525 76.7159 27.5217C76.7159 29.0869 78.0609 31.0032 79.3922 31.335C80.3957 31.5853 82.2363 30.4171 82.2363 29.5301C82.2363 29.066 82.0337 29.1255 81.6461 29.7031C81.0098 30.6517 79.971 30.823 79.0604 30.1295C78.22 29.4893 78.3165 29.1406 79.5402 28.3963C81.3262 27.3098 81.4442 27.0702 80.6363 26.1697C80.136 25.612 79.4598 25.2934 78.7768 25.2934C78.3426 25.2934 78.0067 25.4598 77.4552 25.9486ZM128.081 25.9754C127.603 26.1672 127.135 26.8798 127.135 27.4154C127.135 27.6447 127.374 28.2048 127.667 28.6601C128.267 29.5947 128.348 30.3754 127.887 30.7917C127.383 31.2478 126.852 31.1283 126.116 30.3931C125.741 30.0191 125.406 29.7132 125.37 29.7132C125.334 29.7132 125.305 29.894 125.305 30.115C125.305 30.5912 125.985 31.3163 126.79 31.6978C127.271 31.9256 127.479 31.9375 128.039 31.77C129.355 31.3763 129.635 30.1334 128.726 28.7194C128.436 28.2679 128.199 27.7003 128.199 27.4581C128.199 27.019 128.584 26.4834 128.9 26.4834C129.17 26.4834 129.993 26.949 130.232 27.2371C130.533 27.5992 130.752 27.5718 130.752 27.172C130.752 26.4371 128.946 25.6281 128.081 25.9754ZM79.5747 26.3258C79.8214 26.5194 80.0233 26.8247 80.0233 27.004C80.0233 27.3668 78.583 28.5122 78.1182 28.519C77.7442 28.5244 77.6591 28.3691 77.5333 27.4526C77.4467 26.8215 77.4897 26.6335 77.7898 26.3338C78.2485 25.8758 78.9976 25.8724 79.5747 26.3258ZM97.3017 27.5135C95.8973 27.6852 94.3873 27.9033 93.9463 27.9981C91.7545 28.4692 88.7202 29.3383 88.4582 29.57C88.3693 29.6487 88.1998 29.7132 88.0817 29.7132C87.6343 29.7132 84.641 31.2412 83.109 32.2516C81.385 33.389 79.3507 35.3101 78.1472 36.9377C76.4147 39.2805 74.9327 42.9957 74.4853 46.1172C74.2014 48.0982 74.157 52.9215 74.4106 54.2259C74.738 55.9086 75.145 57.1007 75.4473 57.2624C75.6322 57.3612 82.3944 57.4064 92.9937 57.3799C107.974 57.3421 110.239 57.3039 110.239 57.0885C110.239 56.9522 110.009 56.7871 109.729 56.7218C109.448 56.6566 108.682 56.4522 108.026 56.2676C106.921 55.9564 104.601 55.402 101.728 54.7629C100.378 54.4625 100.055 54.3719 98.1528 53.7596C93.7772 52.3509 91.5029 50.3596 90.5706 47.121C90.3564 46.3769 90.4305 44.063 90.7063 42.8874C91.3903 39.9707 94.1076 37.6524 97.9826 36.6793C100.216 36.1184 101.369 35.9858 104.837 35.8909C108.113 35.8012 108.657 35.8704 111.178 36.6967C112.25 37.0484 114.206 38.0275 115.49 38.8556C119.544 41.4698 123.194 45.9171 124.91 50.3317C125.339 51.4351 125.44 51.5161 125.962 51.1774C126.209 51.0175 128.496 48.7792 131.044 46.2035C134.824 42.3827 135.66 41.4544 135.583 41.162C135.491 40.8098 131.4 36.6955 129.901 35.4469C128.329 34.1383 124.794 31.9093 122.578 30.8291C121.318 30.2153 120.168 29.7132 120.021 29.7132C119.875 29.7132 119.682 29.6492 119.593 29.571C119.054 29.0971 113.714 27.7935 110.828 27.4312C107.8 27.0513 100.729 27.0943 97.3017 27.5135ZM70.3627 28.8058C70.2457 28.853 70.1499 29.0057 70.1499 29.1452C70.1499 29.3931 73.3373 33.3632 74.6025 34.6913L75.2386 35.359L75.7158 35.0167C76.4975 34.456 78.321 32.7567 78.321 32.5887C78.321 32.2467 77.8396 32.4741 76.8209 33.2972C75.79 34.1302 75.7365 34.1518 75.3443 33.8951C75.0047 33.6729 73.7632 32.3016 72.5561 30.8155C71.3934 29.3841 70.783 28.6951 70.6873 28.7067C70.6259 28.714 70.4798 28.7587 70.3627 28.8058ZM113.388 59.1396C113.388 59.3497 113.268 59.4614 113.043 59.4614C112.497 59.4614 112.448 59.929 112.943 60.4232C113.188 60.6676 113.388 60.9719 113.388 61.0994C113.388 61.4464 112.803 61.3789 112.452 60.9913C112.122 60.6268 111.604 60.542 111.429 60.8239C111.371 60.9187 111.5 61.1439 111.717 61.3243C113.485 62.7937 113.388 62.6606 113.388 63.6338C113.388 64.1327 113.314 64.5869 113.223 64.643C113.041 64.7552 112.112 64.3294 111.644 63.9192C111.415 63.7193 111.346 63.3912 111.346 62.5147C111.346 61.514 111.303 61.3598 111.005 61.2821C110.548 61.1626 110.445 61.3836 110.581 62.187C110.673 62.7301 110.639 62.8818 110.407 62.9707C110.06 63.1036 109.82 62.7741 109.816 62.1595C109.814 61.703 109.446 61.2446 109.245 61.446C109.183 61.5076 109.133 61.6981 109.133 61.8696C109.133 62.2258 108.631 62.2919 108.316 61.9772C108.014 61.6758 108.052 61.5677 108.725 60.8242C109.49 59.979 110.935 59.1408 112.086 58.8749C113.108 58.639 113.388 58.6961 113.388 59.1396ZM115.497 58.7984C117.763 59.4036 120.319 61.4974 119.278 61.8963C119.136 61.9507 119.005 61.8547 118.954 61.6595C118.85 61.2629 118.234 61.2208 118.088 61.6002C118.031 61.7481 117.985 62.0447 117.985 62.2593C117.985 62.6676 117.547 63.1604 117.355 62.9684C117.293 62.9073 117.26 62.4823 117.281 62.0242C117.302 61.5659 117.248 61.1467 117.16 61.0926C116.894 60.9287 116.453 61.7877 116.45 62.4728C116.449 62.8267 116.406 63.2715 116.355 63.4612C116.251 63.8483 114.674 64.8089 114.41 64.6459C114.316 64.5883 114.24 64.1555 114.24 63.6841C114.24 62.7849 114.273 62.7378 115.899 61.334C116.663 60.6755 116.072 60.3581 115.261 60.9913C114.76 61.3828 114.24 61.4322 114.24 61.0885C114.24 60.9551 114.481 60.6574 114.776 60.4271C115.382 59.953 115.365 59.3516 114.75 59.5464C114.373 59.6661 114.133 59.3035 114.301 58.8664C114.418 58.562 114.577 58.553 115.497 58.7984ZM60.982 59.0701C58.4845 59.9515 57.5396 63.1879 59.2739 64.9198C60.1157 65.7604 61.328 66.3089 63.7446 66.9425C64.4817 67.1357 65.3085 67.4093 65.5819 67.5505C66.5163 68.033 66.6227 69.3677 65.7711 69.9249C65.5278 70.084 64.8459 70.253 64.2555 70.3003C63.3291 70.3746 63.0526 70.3231 62.2367 69.9244C61.6881 69.6564 61.0272 69.1472 60.6626 68.7117C60.317 68.2988 59.951 67.9609 59.8494 67.9609C59.5588 67.9609 58.404 69.2186 58.404 69.5352C58.404 69.8355 59.8366 70.9602 60.7021 71.3391C61.836 71.8355 63.6037 72.0068 65.1785 71.7731C67.3091 71.4569 68.2077 70.9303 68.865 69.6132C69.5766 68.1875 69.3524 66.4604 68.338 65.5533C67.8882 65.1511 66.0439 64.2211 65.6962 64.2211C65.5351 64.2211 65.3642 64.1577 65.3164 64.0802C65.2684 64.0027 64.7851 63.8424 64.2424 63.724C61.8563 63.2037 61.2414 62.7866 61.3292 61.7472C61.4033 60.8703 62.0125 60.4402 63.3141 60.3462C64.6933 60.2466 65.6572 60.6887 66.517 61.8152C66.8767 62.2863 67.296 62.6762 67.449 62.6815C67.8821 62.6966 68.9503 61.4227 68.8442 61.0176C68.7341 60.5973 67.098 59.4514 66.0587 59.0668C65.0476 58.6929 62.045 58.6947 60.982 59.0701ZM75.0866 59.1423C73.3747 59.8954 72.3263 60.9911 71.6398 62.7452C71.3415 63.5075 71.2843 64.1363 71.2147 67.4111C71.1543 70.2583 71.1863 71.2588 71.3439 71.4484C71.498 71.634 71.9193 71.7 72.9369 71.6981C73.698 71.6966 74.4128 71.6369 74.5255 71.5653C74.6494 71.4866 74.7504 70.9002 74.7809 70.0805L74.8312 68.7258L76.6187 68.6408L78.4061 68.5558V67.8759V67.1959L76.754 67.1109C75.8283 67.0633 75.0144 66.938 74.9026 66.826C74.5577 66.4803 74.7817 62.7677 75.2042 61.8256C76.0184 60.0103 78.1084 59.6666 79.2082 61.1669C80.4945 62.9215 80.2289 68.837 78.6921 72.6592C78.2433 73.7756 78.4313 74.1324 79.4253 74.0504C80.0354 74.0001 80.1583 73.8974 80.9156 72.8056C82.3743 70.7028 83.2372 68.3481 83.3799 66.0816C83.5758 62.9667 82.177 60.4324 79.5868 59.2086C78.4074 58.6516 76.2739 58.6201 75.0866 59.1423ZM85.9388 59.135C85.6639 59.2948 85.6409 59.7743 85.6409 65.3286C85.6409 71.1065 85.6542 71.3557 85.9701 71.5247C86.4311 71.771 88.7581 71.7496 89.0114 71.4967C89.1512 71.3571 89.2157 70.5281 89.2157 68.8719C89.2157 67.5403 89.277 66.4133 89.3519 66.3671C89.4268 66.3208 90.2502 66.2647 91.1819 66.2424C93.1559 66.1954 93.4715 66.0845 93.4715 65.4391C93.4715 64.6675 93.2138 64.5611 91.3436 64.5611C90.2334 64.5611 89.5519 64.4888 89.42 64.3571C89.2893 64.2265 89.2157 63.5604 89.2157 62.5054C89.2157 61.1598 89.2651 60.8388 89.485 60.7545C89.6331 60.6977 90.8224 60.6513 92.1279 60.6513H94.5014L94.6774 60.1886C94.7989 59.8695 94.7988 59.6059 94.6769 59.3387L94.5002 58.9514L90.3684 58.9565C87.8801 58.9597 86.1182 59.0306 85.9388 59.135ZM132.63 59.1529C132.456 59.2169 132.271 59.4082 132.22 59.5778C132.045 60.1488 132.142 71.2645 132.323 71.4882C132.545 71.7607 140.473 71.7941 140.977 71.5247C141.187 71.4122 141.306 71.1691 141.306 70.8507C141.306 70.5323 141.187 70.2892 140.977 70.1767C140.795 70.0795 139.584 70.0008 138.272 70.0008C136.262 70.0008 135.879 69.9593 135.792 69.7318C135.735 69.5839 135.689 68.7901 135.689 67.9678C135.689 66.8908 135.756 66.4172 135.928 66.2742C136.091 66.1391 136.611 66.1085 137.562 66.1784C138.329 66.2346 139.183 66.2311 139.46 66.1704C139.93 66.0672 139.959 66.014 139.911 65.3531L139.859 64.6461L137.997 64.5975C136.973 64.5708 136.034 64.4657 135.912 64.3642C135.679 64.172 135.585 61.4579 135.792 60.9202C135.88 60.6919 136.273 60.6513 138.397 60.6513C140.115 60.6513 140.962 60.5874 141.102 60.4473C141.439 60.1113 141.349 59.3262 140.95 59.1129C140.562 58.9057 133.204 58.941 132.63 59.1529ZM143.616 59.2185C143.384 59.4512 143.349 60.2515 143.349 65.4172C143.349 71.2225 143.357 71.3527 143.698 71.5351C143.89 71.6378 144.254 71.6978 144.506 71.6687L144.966 71.6157L145.051 67.5922C145.098 65.3792 145.186 63.5199 145.246 63.4601C145.306 63.4004 146.56 64.7137 148.033 66.3786C149.505 68.0435 151.168 69.9222 151.727 70.5532C152.735 71.6918 152.75 71.7007 153.621 71.6981C154.104 71.6966 154.596 71.6342 154.714 71.5592C154.882 71.4526 154.919 70.0713 154.884 65.2297L154.84 59.0364H154.159H153.478L153.432 63.0737C153.394 66.4357 153.346 67.1109 153.144 67.1109C153.01 67.1109 152.345 66.4799 151.666 65.7085C150.987 64.9371 150.351 64.2231 150.252 64.1218C150.154 64.0203 149.158 62.8867 148.039 61.6022C146.92 60.318 145.872 59.196 145.709 59.1093C145.229 58.8525 143.914 58.9212 143.616 59.2185ZM102.55 60.5432C103.387 60.8925 103.685 61.4759 103.685 62.7645C103.685 64.0508 103.346 64.8965 102.671 65.2946C102.022 65.6776 100.913 65.8282 100.474 65.5931C100.131 65.4098 100.11 65.2725 100.11 63.1242C100.11 61.8729 100.157 60.7281 100.214 60.5803C100.346 60.236 101.76 60.2136 102.55 60.5432ZM125.575 60.8835C125.654 61.0901 123.019 64.9976 122.35 65.6657C122.113 65.9028 122.078 65.8656 121.992 65.2873C121.801 64.0069 121.535 63.0947 121.042 62.0362C120.766 61.4423 120.582 60.8878 120.634 60.8038C120.686 60.72 121.799 60.6513 123.107 60.6513C124.961 60.6513 125.505 60.7025 125.575 60.8835ZM108.153 63.3353C108.11 63.8804 108.111 63.8811 108.934 63.8811C110.04 63.8811 110.137 64.0479 109.274 64.4667C107.977 65.0962 108.349 65.6946 109.669 65.1032C110.872 64.5645 111.125 64.5264 111.661 64.8033C112.211 65.087 112.708 65.5299 112.708 65.736C112.708 65.8081 112.344 66.0641 111.899 66.3052L111.09 66.7432L110.413 66.4128C110.04 66.2312 109.439 66.0352 109.076 65.9773C108.503 65.8858 108.425 65.912 108.477 66.1787C108.51 66.3473 108.786 66.6069 109.09 66.7557C109.63 67.0196 109.798 67.6098 109.293 67.4662C109.158 67.4278 108.787 67.3608 108.469 67.3171C107.863 67.234 107.838 67.3088 108.187 68.1511C108.265 68.3391 108.196 68.4535 107.97 68.5127C107.493 68.6371 107.349 68.4887 107.032 67.5481C106.653 66.4245 106.676 65.1843 107.097 64.0511C107.288 63.5369 107.479 63.0149 107.522 62.8911C107.565 62.7673 107.734 62.6937 107.898 62.7277C108.119 62.7735 108.185 62.93 108.153 63.3353ZM120.617 63.4136C120.79 63.8272 120.951 64.754 120.996 65.581C121.063 66.8491 121.024 67.1196 120.678 67.7909C120.409 68.3111 120.174 68.5558 119.942 68.5558C119.596 68.5558 119.542 68.3054 119.771 67.7497C119.929 67.3654 119.419 67.1539 118.986 67.4241C118.549 67.6967 118.155 67.6702 118.155 67.3681C118.155 67.2292 118.423 67.0037 118.751 66.8668C119.157 66.6973 119.347 66.5075 119.347 66.2696C119.347 65.7969 118.895 65.8199 117.846 66.346C116.798 66.8718 116.77 66.8716 115.836 66.3249C114.945 65.8034 114.928 65.5067 115.756 64.9495C116.465 64.472 116.95 64.4606 117.814 64.9011C118.511 65.2558 119.261 65.3461 119.418 65.0938C119.547 64.8842 119.006 64.457 118.441 64.3226C117.613 64.1259 118.009 63.7907 119.004 63.8459L119.903 63.8957L119.803 63.3985C119.606 62.4141 120.205 62.4253 120.617 63.4136ZM105.986 67.3234C106.148 68.0013 106.578 69.1103 106.941 69.7883C107.774 71.3427 107.511 71.4025 106.01 70.0004C104.755 68.8277 103.628 67.2862 103.766 66.9297C103.866 66.6717 104.94 66.1348 105.412 66.1073C105.622 66.0951 105.765 66.3966 105.986 67.3234ZM113.388 67.696V68.7909L112.344 69.5936C111.41 70.3115 111.33 70.4189 111.591 70.6095C111.835 70.7873 111.983 70.7548 112.486 70.414C113.051 70.0307 113.388 70.0018 113.388 70.3363C113.388 70.4164 113.159 70.6986 112.878 70.9632C112.243 71.5614 112.231 71.8324 112.835 71.9019C113.17 71.9403 113.319 72.0643 113.358 72.3381C113.403 72.6575 113.333 72.7206 112.93 72.7206C111.053 72.7206 107.59 70.2379 108.291 69.3949C108.584 69.042 109.078 69.0952 109.182 69.4908C109.231 69.6778 109.35 69.8308 109.446 69.8308C109.619 69.8308 109.685 69.6718 109.886 68.7683C109.944 68.5113 110.104 68.3009 110.242 68.3009C110.432 68.3009 110.495 68.5135 110.495 69.1508C110.495 69.7349 110.564 70.0008 110.716 70.0008C111.139 70.0008 111.346 69.5875 111.348 68.7343C111.351 67.7343 111.43 67.5787 112.211 67.028C113.204 66.3271 113.388 66.4315 113.388 67.696ZM115.379 66.9685C116.261 67.4684 116.453 67.7443 116.453 68.5118C116.453 69.339 116.911 70.2909 117.18 70.0223C117.283 69.9193 117.349 69.4821 117.327 69.0509C117.269 67.9265 117.809 68.1557 118.063 69.3633C118.182 69.93 118.529 69.9656 118.893 69.4483C119.122 69.1214 119.187 69.1029 119.335 69.3208C119.534 69.6127 119.42 70.0919 119.024 70.6219C118.335 71.5444 115.959 72.7206 114.784 72.7206C114.292 72.7206 114.223 72.6691 114.27 72.3381C114.309 72.0643 114.458 71.9403 114.793 71.9019C115.375 71.8349 115.389 71.5398 114.835 71.0207C114.439 70.6493 114.248 69.996 114.538 70.0045C114.608 70.0065 114.857 70.1578 115.091 70.3407C115.518 70.6746 116.282 70.8026 116.282 70.5405C116.282 70.4633 116.148 70.2802 115.984 70.1337C114.291 68.6186 114.24 68.5456 114.24 67.6692C114.24 66.466 114.361 66.3912 115.379 66.9685ZM113.641 103.663C113.582 103.758 113.587 104.523 113.653 105.363L113.773 106.889H112.798C110.969 106.889 110.256 107.803 110.35 110.028C110.402 111.241 110.471 111.5 110.886 112.044C111.718 113.133 112.732 113.438 113.756 112.909C114.042 112.762 114.441 112.682 114.642 112.732C115.344 112.908 115.485 112.639 115.357 111.37C115.246 110.273 114.965 108.311 114.579 105.934C114.486 105.362 114.41 104.67 114.41 104.396C114.41 103.706 113.91 103.229 113.641 103.663ZM90.5699 105.124C90.401 105.567 90.3032 106.156 89.7535 110.033C89.4166 112.41 89.4396 112.709 89.9537 112.636C90.2734 112.59 90.3524 112.403 90.5502 111.223C90.8726 109.299 90.8312 109.343 92.2588 109.413C93.2444 109.461 93.4715 109.425 93.4715 109.219C93.4715 109.081 93.2607 108.924 93.0034 108.871C92.746 108.818 92.2288 108.71 91.8543 108.633L91.1734 108.491L91.2178 107.25C91.2857 105.349 91.3393 105.297 93.0818 105.442C94.2493 105.539 94.5179 105.519 94.4575 105.337C94.3683 105.071 92.7002 104.697 91.5521 104.686C90.8288 104.68 90.7207 104.728 90.5699 105.124ZM118.636 105.82C117.838 106.314 117.561 107.472 118.068 108.194C118.318 108.551 119.626 109.098 120.228 109.098C120.669 109.098 121.219 109.705 121.219 110.191C121.219 110.439 121.032 110.751 120.751 110.972C120.359 111.28 120.149 111.322 119.457 111.231C118.515 111.107 118.417 111.389 119.259 111.798C119.679 112.002 119.862 111.995 120.66 111.744C121.775 111.393 122.307 110.707 122.17 109.797C122.04 108.926 121.521 108.492 120.316 108.245C119.736 108.126 119.127 107.913 118.964 107.772C118.257 107.164 118.906 106.055 119.975 106.044C120.578 106.038 120.855 105.791 120.438 105.631C119.95 105.444 119.098 105.533 118.636 105.82ZM97.4542 107.462C96.544 107.874 96.1213 108.667 96.0489 110.099C95.9412 112.228 96.4333 113.124 97.9309 113.527C99.8299 114.038 101.363 112.179 101.071 109.72C100.907 108.333 100.017 107.412 98.7255 107.292C98.3023 107.253 97.7552 107.326 97.4542 107.462ZM113.296 107.334C113.761 107.513 114.055 108.32 114.237 109.922C114.439 111.706 114.303 112.263 113.626 112.433C112.229 112.783 111.355 111.827 111.226 109.807C111.139 108.434 111.512 107.677 112.403 107.42C112.711 107.332 112.976 107.252 112.991 107.244C113.007 107.235 113.144 107.276 113.296 107.334ZM104.417 107.732C103.603 108.227 103.344 108.874 103.348 110.407C103.35 111.465 103.427 111.867 103.731 112.396C104.4 113.561 105.812 114.005 106.962 113.411C108.104 112.822 108.511 112.004 108.424 110.475C108.345 109.095 107.882 108.139 107.084 107.712C106.315 107.3 105.112 107.309 104.417 107.732ZM99.3555 108.16C100.018 108.665 100.203 109.457 100.031 111.059C99.8865 112.407 99.412 113.008 98.4933 113.008C97.3087 113.008 96.6979 111.691 96.969 109.721C97.0603 109.058 97.2213 108.72 97.6464 108.295C98.3147 107.628 98.6244 107.603 99.3555 108.16ZM106.414 108.023C107.028 108.386 107.43 109.425 107.43 110.651C107.43 111.964 107.182 112.565 106.485 112.94C105.913 113.248 105.884 113.248 105.301 112.934C103.934 112.199 103.796 108.864 105.1 108.07C105.761 107.668 105.808 107.666 106.414 108.023Z" fill="#FFDB6E"/>
</svg>
