<?xml version="1.0" encoding="UTF-8"?>
<svg version="1.1" xmlns="http://www.w3.org/2000/svg" width="200" height="196">
<path d="M0 0 C11.1212492 9.54333663 17.51207406 21.26444093 19.92578125 35.70703125 C20.00578876 37.98320194 20.03347078 40.26150821 20.0234375 42.5390625 C20.01860352 44.47749023 20.01860352 44.47749023 20.01367188 46.45507812 C20.0053179 47.80989651 19.99685297 49.16471422 19.98828125 50.51953125 C19.98326125 51.8938786 19.97869922 53.2682277 19.97460938 54.64257812 C19.96283793 57.99744049 19.94639408 61.35221346 19.92578125 64.70703125 C20.87759277 64.83037842 21.8294043 64.95372559 22.81005859 65.08081055 C25.92578125 65.70703125 25.92578125 65.70703125 27.77734375 67.7265625 C29.31003999 71.70427417 29.3766163 75.1666176 29.30078125 79.39453125 C29.29135498 80.19673096 29.28192871 80.99893066 29.2722168 81.82543945 C29.03328237 91.23336358 27.10957729 98.46746515 20.92578125 105.70703125 C18.21733155 107.53921781 17.24018063 107.70703125 13.92578125 107.70703125 C13.91160156 108.2896875 13.89742188 108.87234375 13.8828125 109.47265625 C12.7424455 129.07464036 -1.28407875 143.3139038 -14.98828125 155.93603516 C-22.40145466 162.22994432 -30.96000996 165.10185853 -40.625 164.91015625 C-54.65087785 163.74692555 -65.15427912 153.86117636 -74.07421875 143.70703125 C-82.83646738 133.00908705 -89.72821921 121.92446692 -90.07421875 107.70703125 C-90.79609375 107.64515625 -91.51796875 107.58328125 -92.26171875 107.51953125 C-96.12238691 106.40422712 -97.53983194 104.82627655 -100.07421875 101.70703125 C-103.88592833 94.55529521 -105.26862313 88.42119455 -105.32421875 80.33203125 C-105.35515625 79.21828125 -105.35515625 79.21828125 -105.38671875 78.08203125 C-105.42089481 73.24611902 -104.8416481 69.8517394 -102.07421875 65.70703125 C-99.55133101 65.00062268 -97.67273581 64.70703125 -95.07421875 64.70703125 C-95.2340625 63.73765625 -95.39390625 62.76828125 -95.55859375 61.76953125 C-98.17358556 43.29767419 -96.13379721 23.80156849 -84.73046875 8.578125 C-75.95860184 -2.05594443 -64.67085353 -8.69887396 -51.07421875 -11.29296875 C-49.37265625 -11.63328125 -49.37265625 -11.63328125 -47.63671875 -11.98046875 C-30.3004968 -13.50118997 -14.19089965 -10.58457191 0 0 Z " fill="#C07346" transform="translate(138.07421875,26.29296875)"/>
<path d="M0 0 C11.1212492 9.54333663 17.51207406 21.26444093 19.92578125 35.70703125 C20.00578876 37.98320194 20.03347078 40.26150821 20.0234375 42.5390625 C20.01860352 44.47749023 20.01860352 44.47749023 20.01367188 46.45507812 C20.0053179 47.80989651 19.99685297 49.16471422 19.98828125 50.51953125 C19.98326125 51.8938786 19.97869922 53.2682277 19.97460938 54.64257812 C19.96283793 57.99744049 19.94639408 61.35221346 19.92578125 64.70703125 C20.87759277 64.83037842 21.8294043 64.95372559 22.81005859 65.08081055 C25.92578125 65.70703125 25.92578125 65.70703125 27.77734375 67.7265625 C29.31003999 71.70427417 29.3766163 75.1666176 29.30078125 79.39453125 C29.29135498 80.19673096 29.28192871 80.99893066 29.2722168 81.82543945 C29.03328237 91.23336358 27.10957729 98.46746515 20.92578125 105.70703125 C18.21733155 107.53921781 17.24018063 107.70703125 13.92578125 107.70703125 C13.91160156 108.2896875 13.89742188 108.87234375 13.8828125 109.47265625 C12.7424455 129.07464036 -1.28407875 143.3139038 -14.98828125 155.93603516 C-22.40145466 162.22994432 -30.96000996 165.10185853 -40.625 164.91015625 C-54.65087785 163.74692555 -65.15427912 153.86117636 -74.07421875 143.70703125 C-82.83646738 133.00908705 -89.72821921 121.92446692 -90.07421875 107.70703125 C-90.79609375 107.64515625 -91.51796875 107.58328125 -92.26171875 107.51953125 C-96.12238691 106.40422712 -97.53983194 104.82627655 -100.07421875 101.70703125 C-103.88592833 94.55529521 -105.26862313 88.42119455 -105.32421875 80.33203125 C-105.35515625 79.21828125 -105.35515625 79.21828125 -105.38671875 78.08203125 C-105.42089481 73.24611902 -104.8416481 69.8517394 -102.07421875 65.70703125 C-99.55133101 65.00062268 -97.67273581 64.70703125 -95.07421875 64.70703125 C-95.2340625 63.73765625 -95.39390625 62.76828125 -95.55859375 61.76953125 C-98.17358556 43.29767419 -96.13379721 23.80156849 -84.73046875 8.578125 C-75.95860184 -2.05594443 -64.67085353 -8.69887396 -51.07421875 -11.29296875 C-49.37265625 -11.63328125 -49.37265625 -11.63328125 -47.63671875 -11.98046875 C-30.3004968 -13.50118997 -14.19089965 -10.58457191 0 0 Z M-64.07421875 14.70703125 C-64.40421875 15.69703125 -64.73421875 16.68703125 -65.07421875 17.70703125 C-66.10546875 17.83078125 -67.13671875 17.95453125 -68.19921875 18.08203125 C-74.50483676 19.02294403 -74.50483676 19.02294403 -79.82421875 22.26953125 C-82.18953244 26.88189295 -82.94393435 31.94819184 -83.32421875 37.08203125 C-84.26234662 41.61631596 -86.29711915 44.93677229 -88.69921875 48.86328125 C-92.11539891 55.92856295 -91.25752107 64.27526848 -91.26171875 71.95703125 C-91.27396484 73.12105469 -91.28621094 74.28507812 -91.29882812 75.484375 C-91.4282455 87.41169012 -91.4282455 87.41169012 -88.07421875 98.70703125 C-87.41421875 98.70703125 -86.75421875 98.70703125 -86.07421875 98.70703125 C-86.15671875 99.36703125 -86.23921875 100.02703125 -86.32421875 100.70703125 C-85.91734317 105.58953824 -84.12125119 109.97457618 -80.3203125 113.19140625 C-79.09504524 114.02018828 -77.85822793 114.83220376 -76.609375 115.625 C-74.62484188 117.02376762 -74.00178073 118.49515268 -73.07421875 120.70703125 C-71.15754954 122.95768227 -71.15754954 122.95768227 -69.07421875 124.70703125 C-68.41421875 124.70703125 -67.75421875 124.70703125 -67.07421875 124.70703125 C-66.78546875 125.61453125 -66.49671875 126.52203125 -66.19921875 127.45703125 C-65.30890099 130.02906033 -64.35927462 132.32049891 -63.07421875 134.70703125 C-62.08421875 134.70703125 -61.09421875 134.70703125 -60.07421875 134.70703125 C-59.84089844 135.47660156 -59.60757813 136.24617188 -59.3671875 137.0390625 C-56.72687393 142.48720197 -49.85500081 143.98847007 -44.51171875 146.14453125 C-35.86399172 147.55961386 -28.09310825 143.50942933 -21.07421875 138.70703125 C-19.25788214 136.93411304 -17.70836164 135.15886131 -16.1953125 133.125 C-15.07421875 131.70703125 -15.07421875 131.70703125 -13.07421875 130.70703125 C-12.12297631 128.96855369 -11.17225549 127.22978381 -10.2265625 125.48828125 C-8.61372535 122.99521773 -6.42912888 121.47321385 -4.07421875 119.70703125 C-4.07421875 119.04703125 -4.07421875 118.38703125 -4.07421875 117.70703125 C-3.51734375 117.43890625 -2.96046875 117.17078125 -2.38671875 116.89453125 C-1.24203125 116.30671875 -1.24203125 116.30671875 -0.07421875 115.70703125 C1.12267578 115.11921875 1.12267578 115.11921875 2.34375 114.51953125 C9.12899999 109.75651159 12.13268571 99.18631213 13.86328125 91.39453125 C16.36225772 77.06322528 17.55065055 58.41240308 11.92578125 44.70703125 C11.25546875 43.79566406 10.58515625 42.88429688 9.89453125 41.9453125 C7.03543079 37.24254607 6.89343474 32.57597596 6.5 27.1640625 C6.01000516 22.69191647 6.01000516 22.69191647 3.27270508 19.32202148 C-15.5581225 9.45264822 -43.7642904 10.8252702 -64.07421875 14.70703125 Z " fill="#100907" transform="translate(138.07421875,26.29296875)"/>
<path d="M0 0 C1.58158962 3.00887781 2.43945339 5.63672037 3 9 C3.66 9 4.32 9 5 9 C5.23783203 9.99580078 5.23783203 9.99580078 5.48046875 11.01171875 C6.98826806 16.71803106 8.34433397 20.12027831 13 24 C14.7041054 25.62836738 16.38025441 27.28769752 18 29 C18 29.66 18 30.32 18 31 C19.32 31.66 20.64 32.32 22 33 C22 33.66 22 34.32 22 35 C22.66 35 23.32 35 24 35 C28 41.625 28 41.625 28 45 C28.99 45 29.98 45 31 45 C32.88391785 48.26545761 33.49287967 51.28111761 34 55 C34.70125 55.0825 35.4025 55.165 36.125 55.25 C39.6845752 56.17858484 42.00776119 57.88049751 45 60 C47.61857695 61.78962819 47.61857695 61.78962819 50 63 C50.66 62.67 51.32 62.34 52 62 C52.33 62.66 52.66 63.32 53 64 C56.40312738 62.94124926 59.01353231 61.99097846 62 60 C62.66 60 63.32 60 64 60 C66.05718969 57.53863839 67.93000735 54.96544457 69.83203125 52.3828125 C72.18149505 49.80051895 73.79372377 49.20108126 77 48 C78.92570929 46.22410521 78.92570929 46.22410521 80.5625 44.125 C81.15546875 43.41601562 81.7484375 42.70703125 82.359375 41.9765625 C82.90078125 41.32429688 83.4421875 40.67203125 84 40 C86.3125 37.5 86.3125 37.5 88 36 C88.66 36 89.32 36 90 36 C90.20625 35.154375 90.4125 34.30875 90.625 33.4375 C92.09063941 29.77340147 93.78913216 27.68619802 96.40625 24.8125 C98.02272156 22.9741598 99.41813382 21.07298147 100.8125 19.0625 C101.534375 18.051875 102.25625 17.04125 103 16 C103.33 16 103.66 16 104 16 C105.04457517 29.09200874 100.85173501 39.3212786 92.45703125 49.33496094 C71.19676947 73.63036732 71.19676947 73.63036732 54.89453125 75.203125 C41.00624713 75.51580682 31.71072164 68.65879583 21.9375 59.375 C6.45602889 43.30188031 -0.03912636 26.65014696 -0.125 4.4375 C-0.09422427 2.95806666 -0.05748478 1.47863641 0 0 Z " fill="#0B0605" transform="translate(47,116)"/>
<path d="M0 0 C3.01568405 2.85696384 5.24831333 5.24638571 7 9 C7.495 9.45375 7.99 9.9075 8.5 10.375 C12.32712574 14.52105289 12.44524692 20.63738694 13 26 C13.33 26 13.66 26 14 26 C14 29.3 14 32.6 14 36 C14.928125 36.061875 15.85625 36.12375 16.8125 36.1875 C20 37 20 37 21.67578125 39.0078125 C23.44170095 42.99806174 23.45240828 46.37187651 23.375 50.6875 C23.36557373 51.48969971 23.35614746 52.29189941 23.34643555 53.1184082 C23.10750112 62.52633233 21.18379604 69.7604339 15 77 C12.2915503 78.83218656 11.31439938 79 8 79 C7.505 80.98 7.505 80.98 7 83 C6.67 81.68 6.34 80.36 6 79 C-0.13130346 85.95695904 -0.13130346 85.95695904 -5.0625 93.75 C-7.25579755 97.42907976 -9.70382364 99.53741906 -12.98046875 102.23046875 C-15.4870156 104.4267274 -17.47291704 106.86907779 -19.48046875 109.51953125 C-21 111 -21 111 -23.453125 111.9140625 C-26.59558515 113.25394581 -27.63568425 114.77733477 -29.5625 117.5625 C-32.52399897 121.83718095 -32.52399897 121.83718095 -35.08984375 122.71484375 C-35.72019531 122.80894531 -36.35054687 122.90304688 -37 123 C-37.99 123.495 -37.99 123.495 -39 124 C-40.99398424 124.99699212 -42.82740103 125.53444308 -45 126 C-45.495 125.01 -45.495 125.01 -46 124 C-46.99 124.495 -46.99 124.495 -48 125 C-48.33 124.34 -48.66 123.68 -49 123 C-50.98166034 121.9641321 -52.98473831 120.96887581 -55 120 C-55.86625 119.46375 -56.7325 118.9275 -57.625 118.375 C-59.80836414 117.11094707 -61.53840795 116.45585038 -64 116 C-64 114.35 -64 112.7 -64 111 C-62.96101563 111.45632812 -61.92203125 111.91265625 -60.8515625 112.3828125 C-50.90633044 116.79717025 -50.90633044 116.79717025 -40.37109375 116.02734375 C-32.19001336 112.48265818 -26.50945079 109.06339844 -21 102 C-20.34 102 -19.68 102 -19 102 C-18.89558594 101.41734375 -18.79117188 100.8346875 -18.68359375 100.234375 C-17.89706383 97.66354577 -16.82434109 96.2659942 -15.0625 94.25 C-14.53785156 93.63640625 -14.01320312 93.0228125 -13.47265625 92.390625 C-12 91 -12 91 -10 91 C-10 90.34 -10 89.68 -10 89 C-8.5390625 87.7109375 -8.5390625 87.7109375 -6.625 86.375 C-5.99851563 85.92898437 -5.37203125 85.48296875 -4.7265625 85.0234375 C-3 84 -3 84 -1 84 C-0.89558594 83.46246094 -0.79117188 82.92492187 -0.68359375 82.37109375 C0.17569502 79.39058929 1.53804811 76.830609 2.9375 74.0625 C10.33845764 57.96497343 10.6796065 35.38423376 5.9296875 18.375 C5.00305534 15.75913396 5.00305534 15.75913396 2.875 12.8125 C0.17570123 8.76355185 0.18872603 4.77476867 0 0 Z " fill="#2B1911" transform="translate(144,55)"/>
<path d="M0 0 C3.34747513 2.69957672 4.39872097 6.06352238 6 10 C6.556875 10.928125 7.11375 11.85625 7.6875 12.8125 C9.50977334 17.23802096 9.25200297 21.2772777 9 26 C7.20821221 26 5.41616768 25.98463599 3.625 25.9375 C0.9687568 26.00074389 -1.41468487 26.40907083 -4 27 C-4.33 26.34 -4.66 25.68 -5 25 C-3.35 24.34 -1.7 23.68 0 23 C-1.32 21.68 -2.64 20.36 -4 19 C-4.12375 19.78375 -4.2475 20.5675 -4.375 21.375 C-5 24 -5 24 -7 26 C-9.65537372 26.56520003 -12.29144713 26.73788198 -15 27 C-12.36 27.33 -9.72 27.66 -7 28 C-10.7367843 30.49118953 -12.74451819 30.2065226 -17.1875 30.125 C-18.45980469 30.10695312 -19.73210937 30.08890625 -21.04296875 30.0703125 C-22.01878906 30.04710937 -22.99460937 30.02390625 -24 30 C-28.90774487 21.76765376 -28.90774487 21.76765376 -29 19 C-27.59097021 15.14865192 -26.21031091 14.11089121 -22.5625 12.1875 C-17.16568402 10.39192384 -11.61599423 10.74728026 -6 11 C-8.27415287 7.62911733 -8.27415287 7.62911733 -12 6 C-18.00788992 5.51639276 -23.05605796 5.13754528 -28 9 C-28.99 9.33 -29.98 9.66 -31 10 C-30.52403971 5.71635739 -28.16126242 3.73976076 -25 1 C-17.63736808 -3.85264377 -8.10163086 -2.73466601 0 0 Z " fill="#854420" transform="translate(85,76)"/>
<path d="M0 0 C1.32837891 -0.0299707 1.32837891 -0.0299707 2.68359375 -0.06054688 C8.32860595 -0.05634046 11.69684624 0.60755956 16.125 4.4375 C17.76808887 6.35297259 18.83160939 8.24868513 20.125 10.4375 C17.125 10.4375 17.125 10.4375 14.8828125 8.95703125 C11.39727274 7.03652846 8.9570068 7.07039163 5 7.125 C3.78054687 7.12886719 2.56109375 7.13273437 1.3046875 7.13671875 C-2.0303428 7.19881715 -2.0303428 7.19881715 -4.875 9.4375 C-5.865 10.9225 -5.865 10.9225 -6.875 12.4375 C-7.535 12.4375 -8.195 12.4375 -8.875 12.4375 C-8.875 13.0975 -8.875 13.7575 -8.875 14.4375 C-8.25625 14.1075 -7.6375 13.7775 -7 13.4375 C-1.00139183 11.51794539 4.86139549 11.52091431 10.625 14.1875 C13.68320339 15.76673617 14.7949003 17.27186271 16.125 20.4375 C14.7328125 19.4784375 14.7328125 19.4784375 13.3125 18.5 C7.48395725 14.72858999 1.8951788 14.902308 -4.875 15.4375 C-7.24953128 16.18965355 -8.78812161 17.04624774 -10.875 18.4375 C-7.99285113 17.55535113 -7.99285113 17.55535113 -5.875 16.4375 C1.44228315 15.75080112 8.09954532 15.81798474 14.125 20.4375 C14.785 21.4275 15.445 22.4175 16.125 23.4375 C14.145 24.0975 12.165 24.7575 10.125 25.4375 C10.455 24.4475 10.785 23.4575 11.125 22.4375 C9.475 21.4475 7.825 20.4575 6.125 19.4375 C6.16625 20.38625 6.2075 21.335 6.25 22.3125 C6.125 25.4375 6.125 25.4375 4.125 27.4375 C1.84765625 27.73828125 1.84765625 27.73828125 -0.8125 27.75 C-2.12541016 27.77513672 -2.12541016 27.77513672 -3.46484375 27.80078125 C-6.33174145 27.36865567 -7.16026836 26.73276775 -8.875 24.4375 C-9.205 23.4475 -9.535 22.4575 -9.875 21.4375 C-10.865 22.7575 -11.855 24.0775 -12.875 25.4375 C-11.225 25.7675 -9.575 26.0975 -7.875 26.4375 C-7.875 27.0975 -7.875 27.7575 -7.875 28.4375 C-4.905 28.7675 -1.935 29.0975 1.125 29.4375 C1.125 29.7675 1.125 30.0975 1.125 30.4375 C-6.1883957 30.92505971 -13.72562801 29.53708133 -19.875 25.4375 C-20.23828125 23.1953125 -20.23828125 23.1953125 -20.1875 20.5625 C-20.18363281 19.69882813 -20.17976563 18.83515625 -20.17578125 17.9453125 C-19.86042476 15.31597661 -19.28840009 13.66497859 -17.875 11.4375 C-17.215 11.1075 -16.555 10.7775 -15.875 10.4375 C-15.441875 8.766875 -15.441875 8.766875 -15 7.0625 C-13.875 3.4375 -13.875 3.4375 -12.421875 1.73828125 C-8.40024324 -0.31571166 -4.44918661 -0.035311 0 0 Z " fill="#944B25" transform="translate(125.875,74.5625)"/>
<path d="M0 0 C9.10915272 4.87329389 9.10915272 4.87329389 11.9609375 8.4765625 C11.9609375 9.4665625 11.9609375 10.4565625 11.9609375 11.4765625 C9.10606635 12.42818622 7.35639433 12.59819389 4.39770508 12.59008789 C3.47697708 12.59001236 2.55624908 12.58993683 1.60762024 12.58985901 C0.61691025 12.58469772 -0.37379974 12.57953644 -1.39453125 12.57421875 C-2.41130447 12.5728038 -3.4280777 12.57138885 -4.47566223 12.56993103 C-7.72599214 12.56432957 -10.97625338 12.55177682 -14.2265625 12.5390625 C-16.42903546 12.53404769 -18.63150951 12.52948475 -20.83398438 12.52539062 C-26.23570054 12.51435967 -31.63737662 12.49762012 -37.0390625 12.4765625 C-37.0390625 11.8165625 -37.0390625 11.1565625 -37.0390625 10.4765625 C-29.63986691 3.27689578 -21.29859206 2.22088784 -11.4609375 2.1953125 C-6.25610789 2.38727604 -2.43926134 3.75766234 1.9609375 6.4765625 C3.6177708 7.16730532 5.28279648 7.83933026 6.9609375 8.4765625 C-2.1647389 1.14109056 -12.35128918 1.15390316 -23.59667969 2.10009766 C-28.68495077 2.88439534 -32.16588648 5.27698231 -36.0390625 8.4765625 C-37.0290625 8.8065625 -38.0190625 9.1365625 -39.0390625 9.4765625 C-39.0390625 10.4665625 -39.0390625 11.4565625 -39.0390625 12.4765625 C-39.6990625 12.4765625 -40.3590625 12.4765625 -41.0390625 12.4765625 C-41.0390625 10.4965625 -41.0390625 8.5165625 -41.0390625 6.4765625 C-38.60307442 5.16118886 -36.16538 3.84917107 -33.7265625 2.5390625 C-33.03626953 2.16587891 -32.34597656 1.79269531 -31.63476562 1.40820312 C-30.96767578 1.05048828 -30.30058594 0.69277344 -29.61328125 0.32421875 C-28.69421997 -0.1706604 -28.69421997 -0.1706604 -27.7565918 -0.67553711 C-20.22067242 -4.39582822 -7.66707157 -3.31811874 0 0 Z " fill="#8F502E" transform="translate(113.0390625,132.5234375)"/>
<path d="M0 0 C1.24458984 -0.00386719 2.48917969 -0.00773438 3.77148438 -0.01171875 C4.97482422 -0.01042969 6.17816406 -0.00914062 7.41796875 -0.0078125 C8.50231201 -0.00668457 9.58665527 -0.00555664 10.70385742 -0.00439453 C13.81612116 0.12515073 16.75451351 0.54676464 19.8125 1.125 C19.08159301 5.46358894 17.09316235 7.04214549 13.7890625 9.734375 C8.37959994 13.54024194 2.03136963 15.66636147 -4.578125 15.6015625 C-11.12334523 14.40617797 -17.10708872 9.73124489 -21.375 4.75 C-23.1875 2.125 -23.1875 2.125 -23.1875 1.125 C-15.43964981 0.06961716 -7.81255458 -0.02450357 0 0 Z " fill="#C46741" transform="translate(99.1875,143.875)"/>
<path d="M0 0 C2.67927341 4.01891012 2.15601248 6.24161923 2 11 C1.01 10.34 0.02 9.68 -1 9 C-0.34 10.98 0.32 12.96 1 15 C1.66 15 2.32 15 3 15 C3.33921452 18.18690233 3.67029417 21.37460104 4 24.5625 C4.14308594 25.90538086 4.14308594 25.90538086 4.2890625 27.27539062 C4.79567965 32.21490788 5.10897382 37.03488014 5 42 C1.68741337 41.716064 0.08609329 41.06719476 -2.5625 39 C-8.51441808 31.67456237 -10.18644785 23.87183738 -10.25 14.625 C-10.270625 13.8825 -10.29125 13.14 -10.3125 12.375 C-10.34684914 7.51459713 -9.68666118 4.21258039 -7 0 C-4.27584084 -1.36207958 -2.87220643 -0.86166193 0 0 Z " fill="#7A3B1C" transform="translate(43,92)"/>
<path d="M0 0 C3.54001257 4.32102254 3.47051883 8.36218722 3.375 13.6875 C3.36557373 14.48969971 3.35614746 15.29189941 3.34643555 16.1184082 C3.11511699 25.22646125 1.45719127 33.24930004 -5 40 C-8.8125 40.4375 -8.8125 40.4375 -12 40 C-12.08637312 34.4967984 -11.82009077 29.20698129 -11.125 23.75 C-11.04636719 23.05648437 -10.96773437 22.36296875 -10.88671875 21.6484375 C-10.16913689 15.88570315 -8.53508449 12.49919845 -5 8 C-3.68 8.33 -2.36 8.66 -1 9 C-0.67 7.35 -0.34 5.7 0 4 C-3.93673644 5.31224548 -6.22719294 6.91910327 -9 10 C-9.25 6.6875 -9.25 6.6875 -9 3 C-6.39050005 0.00390747 -3.89397412 -0.79876392 0 0 Z " fill="#B46235" transform="translate(164,92)"/>
<path d="M0 0 C2.3515625 1.34765625 2.3515625 1.34765625 4 3 C4 6.24792684 3.3492671 8.07658794 2 11 C-1.00617269 14.00617269 -3.82381598 13.59585316 -8 14 C-5.36 14.33 -2.72 14.66 0 15 C-3.7367843 17.49118953 -5.74451819 17.2065226 -10.1875 17.125 C-11.45980469 17.10695313 -12.73210937 17.08890625 -14.04296875 17.0703125 C-15.01878906 17.04710938 -15.99460937 17.02390625 -17 17 C-21.15178571 10.03571429 -21.15178571 10.03571429 -22 6 C-14.98229263 0.78329718 -8.81489349 -1.66733323 0 0 Z " fill="#A96035" transform="translate(78,89)"/>
<path d="M0 0 C0 0.66 0 1.32 0 2 C-1.60256108 2.50512244 -3.20711792 3.00391627 -4.8125 3.5 C-5.70582031 3.7784375 -6.59914063 4.056875 -7.51953125 4.34375 C-10 5 -10 5 -13 5 C-13.48108275 6.41601714 -13.95978141 7.83284437 -14.4375 9.25 C-14.70433594 10.03890625 -14.97117187 10.8278125 -15.24609375 11.640625 C-16.27516484 14.86113763 -16.98024073 17.67726523 -17.1875 21.0625 C-17.77106924 25.6618169 -20.24247993 29.26174604 -22.625 33.15625 C-25.25819498 38.60217598 -25.11337593 44.40733699 -25.02734375 50.359375 C-25.01471345 51.73567472 -25.00235135 53.11197692 -24.99023438 54.48828125 C-24.96531772 56.63012673 -24.93716238 58.77183914 -24.90405273 60.91357422 C-24.87389842 62.99968319 -24.8561077 65.08561814 -24.83984375 67.171875 C-24.82300537 68.4103418 -24.80616699 69.64880859 -24.78881836 70.92480469 C-25 74 -25 74 -27 77 C-27 73.04 -27 69.08 -27 65 C-27.66 65 -28.32 65 -29 65 C-30.06775224 63.03533587 -31.06553465 61.03144641 -32 59 C-31.67 58.34 -31.34 57.68 -31 57 C-30.34 57.66 -29.68 58.32 -29 59 C-29.08378906 57.93523437 -29.16757812 56.87046875 -29.25390625 55.7734375 C-31.19876885 29.07718365 -31.19876885 29.07718365 -25 21 C-24.34 20.67 -23.68 20.34 -23 20 C-22.855625 19.360625 -22.71125 18.72125 -22.5625 18.0625 C-22 16 -22 16 -19 14 C-18.20955484 11.91179865 -18.20955484 11.91179865 -17.6875 9.5625 C-16.6169685 6.11914096 -16.33929332 5.24460681 -13.3125 3.0625 C-3.76470588 0 -3.76470588 0 0 0 Z " fill="#31160B" transform="translate(73,42)"/>
<path d="M0 0 C3.01568405 2.85696384 5.24831333 5.24638571 7 9 C7.495 9.45375 7.99 9.9075 8.5 10.375 C12.32712574 14.52105289 12.44524692 20.63738694 13 26 C13.33 26 13.66 26 14 26 C14 29.3 14 32.6 14 36 C15.32 36.33 16.64 36.66 18 37 C16.02 37.99 14.04 38.98 12 40 C12 41.98 12 43.96 12 46 C12.5775 45.175 13.155 44.35 13.75 43.5 C14.4925 42.675 15.235 41.85 16 41 C17.32 41 18.64 41 20 41 C20 43.31 20 45.62 20 48 C19.34 47.34 18.68 46.68 18 46 C16.02 46.495 16.02 46.495 14 47 C13.34 49.64 12.68 52.28 12 55 C11.67 55 11.34 55 11 55 C10.67 57.31 10.34 59.62 10 62 C7.83385118 58.497891 7.80184791 55.79322021 7.91015625 51.72265625 C7.93013672 50.48580078 7.95011719 49.24894531 7.97070312 47.97460938 C8.03107881 45.40157741 8.09605266 42.82864851 8.16601562 40.25585938 C8.3059479 30.90934821 8.21810997 20.82716495 2.875 12.8125 C0.17570123 8.76355185 0.18872603 4.77476867 0 0 Z " fill="#5C2F18" transform="translate(144,55)"/>
<path d="M0 0 C2 2 2 2 2.125 4.625 C2.08375 5.40875 2.0425 6.1925 2 7 C0.60427948 7.02736707 -0.79160221 7.04655989 -2.1875 7.0625 C-2.96480469 7.07410156 -3.74210937 7.08570312 -4.54296875 7.09765625 C-7.12695644 6.99495404 -9.46769252 6.50957339 -12 6 C-20.52978656 5.33496278 -20.52978656 5.33496278 -28 9 C-28.99 9.33 -29.98 9.66 -31 10 C-30.52403971 5.71635739 -28.16126242 3.73976076 -25 1 C-17.48979483 -3.94990795 -8.27161181 -2.53308339 0 0 Z " fill="#23140D" transform="translate(85,76)"/>
<path d="M0 0 C1.32837891 -0.0299707 1.32837891 -0.0299707 2.68359375 -0.06054688 C8.32860595 -0.05634046 11.69684624 0.60755956 16.125 4.4375 C17.76808887 6.35297259 18.83160939 8.24868513 20.125 10.4375 C17.125 10.4375 17.125 10.4375 14.8828125 8.953125 C11.38845921 7.03271554 8.96279779 7.10336417 5 7.1875 C3.17082031 7.21070312 3.17082031 7.21070312 1.3046875 7.234375 C-1.8971966 7.30317447 -1.8971966 7.30317447 -4.875 8.4375 C-6.60295352 8.50552967 -8.33335365 8.52245645 -10.0625 8.5 C-11.41408203 8.48646484 -11.41408203 8.48646484 -12.79296875 8.47265625 C-13.48003906 8.46105469 -14.16710937 8.44945313 -14.875 8.4375 C-14.57657576 5.6770758 -14.29324409 3.91745223 -12.4453125 1.796875 C-8.41951367 -0.33227089 -4.48349768 -0.03558331 0 0 Z " fill="#261711" transform="translate(125.875,74.5625)"/>
<path d="M0 0 C3.59971139 1.73368453 5.23110655 2.80759732 7.5 6.2109375 C5.52 6.8709375 3.54 7.5309375 1.5 8.2109375 C1.83 7.2209375 2.16 6.2309375 2.5 5.2109375 C0.025 3.7259375 0.025 3.7259375 -2.5 2.2109375 C-2.45875 3.1596875 -2.4175 4.1084375 -2.375 5.0859375 C-2.5 8.2109375 -2.5 8.2109375 -4.5 10.2109375 C-6.77734375 10.51171875 -6.77734375 10.51171875 -9.4375 10.5234375 C-10.75041016 10.54857422 -10.75041016 10.54857422 -12.08984375 10.57421875 C-14.95674145 10.14209317 -15.78526836 9.50620525 -17.5 7.2109375 C-17.83 6.2209375 -18.16 5.2309375 -18.5 4.2109375 C-20.15 5.5309375 -21.8 6.8509375 -23.5 8.2109375 C-19.68347969 -1.50384147 -9.01727221 -2.84607654 0 0 Z " fill="#180F0A" transform="translate(134.5,91.7890625)"/>
<path d="M0 0 C3.54001257 4.32102254 3.47051883 8.36218722 3.375 13.6875 C3.36557373 14.48969971 3.35614746 15.29189941 3.34643555 16.1184082 C3.11511699 25.22646125 1.45719127 33.24930004 -5 40 C-8.8125 40.4375 -8.8125 40.4375 -12 40 C-12 37.36 -12 34.72 -12 32 C-11.67 32 -11.34 32 -11 32 C-11 33.98 -11 35.96 -11 38 C-7.87145304 37.43117328 -5.66282442 36.91886874 -3.74609375 34.26171875 C-1.8823135 30.60980985 -0.51233968 27.09871747 0 23 C-1.485 25.475 -1.485 25.475 -3 28 C-4 25 -4 25 -3.0625 22.9375 C-1.51247519 18.65213729 -1.8423131 14.5115974 -2 10 C-3.65 10.66 -5.3 11.32 -7 12 C-6.34 10.68 -5.68 9.36 -5 8 C-3.68 8.33 -2.36 8.66 -1 9 C-0.67 7.35 -0.34 5.7 0 4 C-3.93673644 5.31224548 -6.22719294 6.91910327 -9 10 C-9.25 6.6875 -9.25 6.6875 -9 3 C-6.39050005 0.00390747 -3.89397412 -0.79876392 0 0 Z " fill="#954B24" transform="translate(164,92)"/>
<path d="M0 0 C0 0.66 0 1.32 0 2 C-1.65 2 -3.3 2 -5 2 C-4.67 2.66 -4.34 3.32 -4 4 C-2.02 3.67 -0.04 3.34 2 3 C3.30892449 7.402746 3.30892449 7.402746 2.0625 9.8125 C-1.18216137 11.68063837 -4.35045261 11.55503533 -8 11 C-10 9.8125 -10 9.8125 -11 8 C-11.1875 5.3125 -11.1875 5.3125 -11 3 C-12.65 4.32 -14.3 5.64 -16 7 C-15.01 8.485 -15.01 8.485 -14 10 C-16.475 9.01 -16.475 9.01 -19 8 C-19 6.68 -19 5.36 -19 4 C-12.76335625 -0.53574091 -7.56198897 -0.44701413 0 0 Z " fill="#090503" transform="translate(78,91)"/>
<path d="M0 0 C0.33 0 0.66 0 1 0 C1.33 4.29 1.66 8.58 2 13 C2.66 13 3.32 13 4 13 C4.33 11.68 4.66 10.36 5 9 C6.9375 10 6.9375 10 9 12 C9.73623421 14.736154 9.86138593 17.13530925 10 20 C9.67 20.33 9.34 20.66 9 21 C10.32 21.33 11.64 21.66 13 22 C13 24.64 13 27.28 13 30 C9.64585927 29.72048827 8.30720932 29.32788687 5.96875 26.83203125 C0.47486969 18.92912803 -0.6780418 9.39841275 0 0 Z " fill="#A3532A" transform="translate(34,101)"/>
<path d="M0 0 C1.231394 2.46278801 1.07159196 4.2795055 1 7 C3.64 7 6.28 7 9 7 C9 7.66 9 8.32 9 9 C11.33294775 9.04241723 13.66702567 9.04092937 16 9 C16.33 8.67 16.66 8.34 17 8 C20.4375 7.8125 20.4375 7.8125 24 8 C24.66 8.66 25.32 9.32 26 10 C26.66 8.35 27.32 6.7 28 5 C28.33 5 28.66 5 29 5 C29.125 7.875 29.125 7.875 29 11 C28.34 11.66 27.68 12.32 27 13 C24.68005186 12.89434771 22.47906641 12.48570495 20.19140625 12.09375 C17.70379527 11.77153457 17.70379527 11.77153457 15 14 C12.4765625 13.9765625 12.4765625 13.9765625 9.625 13.625 C6.76909884 13.28669766 4.14862577 12.99190863 1.2734375 13.1484375 C0.52320312 13.09945312 -0.22703125 13.05046875 -1 13 C-3.32579101 9.51131349 -3.41865457 8.10281481 -3 4 C-1.5 1.625 -1.5 1.625 0 0 Z " fill="#8F421D" transform="translate(85,113)"/>
<path d="M0 0 C0.66 0 1.32 0 2 0 C2.15855469 0.66386719 2.31710938 1.32773438 2.48046875 2.01171875 C3.98826806 7.71803106 5.34433397 11.12027831 10 15 C11.7041054 16.62836738 13.38025441 18.28769752 15 20 C15 20.66 15 21.32 15 22 C16.32 22.66 17.64 23.32 19 24 C19 24.66 19 25.32 19 26 C19.66 26 20.32 26 21 26 C25 32.625 25 32.625 25 36 C25.99 36 26.98 36 28 36 C28.66 37.65 29.32 39.3 30 41 C28.515 40.505 28.515 40.505 27 40 C27 39.34 27 38.68 27 38 C25.515 38.495 25.515 38.495 24 39 C23.938125 38.443125 23.87625 37.88625 23.8125 37.3125 C23.08864977 34.71902531 23.08864977 34.71902531 20.4375 32.4375 C19.633125 31.633125 18.82875 30.82875 18 30 C18 29.01 18 28.02 18 27 C17.34 27 16.68 27 16 27 C16 26.34 16 25.68 16 25 C15.278125 24.773125 14.55625 24.54625 13.8125 24.3125 C9.24302798 22.18007973 5.75428059 18.78440161 4 14 C4 13.01 4 12.02 4 11 C3.34 11 2.68 11 2 11 C1.34 7.37 0.68 3.74 0 0 Z " fill="#492614" transform="translate(50,125)"/>
<path d="M0 0 C0.99 0 1.98 0 3 0 C6 5.75 6 5.75 6 8 C6.66 8 7.32 8 8 8 C8.33 13.28 8.66 18.56 9 24 C7.35 24 5.7 24 4 24 C4 23.34 4 22.68 4 22 C4.66 22 5.32 22 6 22 C5.55090939 20.51800098 5.09043436 19.03944764 4.625 17.5625 C4.36976562 16.73878906 4.11453125 15.91507813 3.8515625 15.06640625 C3.19117773 12.82201984 3.19117773 12.82201984 1 12 C0.67 12.99 0.34 13.98 0 15 C-0.66 15 -1.32 15 -2 15 C-2.66 10.38 -3.32 5.76 -4 1 C-3.34 1 -2.68 1 -2 1 C-1.67 1.66 -1.34 2.32 -1 3 C-0.67 2.01 -0.34 1.02 0 0 Z " fill="#954923" transform="translate(38,99)"/>
<path d="M0 0 C0 0.66 0 1.32 0 2 C-1.60256108 2.50512244 -3.20711792 3.00391627 -4.8125 3.5 C-5.70582031 3.7784375 -6.59914063 4.056875 -7.51953125 4.34375 C-10 5 -10 5 -13 5 C-13.48108275 6.41601714 -13.95978141 7.83284437 -14.4375 9.25 C-14.70433594 10.03890625 -14.97117187 10.8278125 -15.24609375 11.640625 C-16.27516484 14.86113763 -16.98024073 17.67726523 -17.1875 21.0625 C-17.77702893 25.70878733 -20.33051495 29.33881182 -22.6328125 33.33203125 C-24.35351127 36.68985198 -24.83395295 39.26394131 -25 43 C-25.33 43 -25.66 43 -26 43 C-27.19865788 36.6312274 -26.96802867 32.93605734 -24 27 C-23.47767012 25.5076289 -22.97856644 24.00697517 -22.5 22.5 C-21.59383007 19.70558069 -20.61902281 17.00209716 -19.4375 14.3125 C-17.92369437 11.07167044 -17.92369437 11.07167044 -17.1875 7.75 C-16 5 -16 5 -13.375 3.25 C-9.10516829 1.66858085 -4.59896692 0 0 0 Z " fill="#683418" transform="translate(73,42)"/>
<path d="M0 0 C-0.33 0.99 -0.66 1.98 -1 3 C-6.36489595 3.90483637 -11.50317457 4.12303662 -16.9375 4.0625 C-17.71673828 4.05798828 -18.49597656 4.05347656 -19.29882812 4.04882812 C-21.19925268 4.03716908 -23.09963706 4.01923877 -25 4 C-25 3.01 -25 2.02 -25 1 C-17.05499384 -1.45421656 -7.90011496 -3.95005748 0 0 Z " fill="#A15237" transform="translate(109,138)"/>
<path d="M0 0 C1.3921875 0.3403125 1.3921875 0.3403125 2.8125 0.6875 C1.6678125 1.4609375 1.6678125 1.4609375 0.5 2.25 C-2.80325607 5.24597644 -3.67375726 7.54462514 -5.1875 11.6875 C-3.5375 11.6875 -1.8875 11.6875 -0.1875 11.6875 C-0.8475 13.0075 -1.5075 14.3275 -2.1875 15.6875 C-0.2075 16.3475 1.7725 17.0075 3.8125 17.6875 C3.8125 18.3475 3.8125 19.0075 3.8125 19.6875 C6.7825 20.0175 9.7525 20.3475 12.8125 20.6875 C12.8125 21.0175 12.8125 21.3475 12.8125 21.6875 C5.4991043 22.17505971 -2.03812801 20.78708133 -8.1875 16.6875 C-8.55078125 14.4453125 -8.55078125 14.4453125 -8.5 11.8125 C-8.49613281 10.94882813 -8.49226563 10.08515625 -8.48828125 9.1953125 C-8.08496818 5.83262428 -6.83551435 3.62712081 -4.9375 0.875 C-3.1875 -0.3125 -3.1875 -0.3125 0 0 Z " fill="#A1562B" transform="translate(114.1875,83.3125)"/>
<path d="M0 0 C6.20988129 0.44356295 10.60540561 1.91532502 16 5 C15.67 5.66 15.34 6.32 15 7 C2.70483066 9.19778744 -10.56346066 8.09962719 -23 8 C-16.56996974 1.21274584 -16.56996974 1.21274584 -11.640625 0.8046875 C-10.45726563 0.83949219 -10.45726563 0.83949219 -9.25 0.875 C-8.45078125 0.89304688 -7.6515625 0.91109375 -6.828125 0.9296875 C-6.22484375 0.95289063 -5.6215625 0.97609375 -5 1 C-5 1.33 -5 1.66 -5 2 C-8.96 2.99 -12.92 3.98 -17 5 C-17 5.33 -17 5.66 -17 6 C-14.31243045 6.02720824 -11.62514202 6.0469388 -8.9375 6.0625 C-8.18533203 6.07087891 -7.43316406 6.07925781 -6.65820312 6.08789062 C-2.00213182 6.10804678 2.43082922 5.94473102 7 5 C7.33 4.34 7.66 3.68 8 3 C5.03 2.67 2.06 2.34 -1 2 C-0.67 1.34 -0.34 0.68 0 0 Z " fill="#994C30" transform="translate(101,135)"/>
<path d="M0 0 C1.65 0.66 3.3 1.32 5 2 C5 3.66666667 5 5.33333333 5 7 C4.34 7 3.68 7 3 7 C3.33 8.32 3.66 9.64 4 11 C0.31233808 12.18005182 -3.15110517 12.20993972 -7 12 C-7.99 11.34 -8.98 10.68 -10 10 C-10.70125 9.835 -11.4025 9.67 -12.125 9.5 C-12.74375 9.335 -13.3625 9.17 -14 9 C-14.33 8.34 -14.66 7.68 -15 7 C-17.02463255 6.34786708 -17.02463255 6.34786708 -19 6 C-17.25 2.125 -17.25 2.125 -15 1 C-14.690625 1.804375 -14.38125 2.60875 -14.0625 3.4375 C-13.23664655 5.89080405 -13.23664655 5.89080405 -12 7 C-10.31391034 7.07205511 -8.62499341 7.08386068 -6.9375 7.0625 C-6.01839844 7.05347656 -5.09929687 7.04445313 -4.15234375 7.03515625 C-3.44207031 7.02355469 -2.73179687 7.01195313 -2 7 C-1.34 4.69 -0.68 2.38 0 0 Z " fill="#AE663D" transform="translate(132,94)"/>
<path d="M0 0 C1.39456452 0.00667256 2.78911118 0.01863093 4.18359375 0.03515625 C4.89451172 0.03966797 5.60542969 0.04417969 6.33789062 0.04882812 C8.09899388 0.06064761 9.86005411 0.07858362 11.62109375 0.09765625 C12.28109375 1.41765625 12.94109375 2.73765625 13.62109375 4.09765625 C9.7441946 5.91069781 6.69953239 6.34344858 2.43359375 6.28515625 C1.38816406 6.27871094 0.34273438 6.27226562 -0.734375 6.265625 C-3.37890625 6.09765625 -3.37890625 6.09765625 -5.37890625 5.09765625 C-4.25559544 0.12299409 -4.25559544 0.12299409 0 0 Z " fill="#D27C5C" transform="translate(95.37890625,144.90234375)"/>
<path d="M0 0 C-1.33333333 3.33333333 -2.66666667 6.66666667 -4 10 C3.92 10 11.84 10 20 10 C20 8.35 20 6.7 20 5 C20.99 5.66 21.98 6.32 23 7 C22.34 9.64 21.68 12.28 21 15 C20.01 14.34 19.02 13.68 18 13 C14.60134064 12.81118559 11.58733911 12.87986245 8.25 13.5625 C6 14 6 14 3 13 C3 12.34 3 11.68 3 11 C0.36 11 -2.28 11 -5 11 C-5.75 7.75 -5.75 7.75 -6 4 C-3.02564103 0 -3.02564103 0 0 0 Z " fill="#A75327" transform="translate(91,109)"/>
<path d="M0 0 C0.27585937 0.57492188 0.55171875 1.14984375 0.8359375 1.7421875 C1.95350013 3.99718916 1.95350013 3.99718916 3.2890625 6.0078125 C6.94170074 11.79649649 7.63677455 16.22188864 7 23 C5.20821221 23 3.41616768 22.98463599 1.625 22.9375 C-1.0312432 23.00074389 -3.41468487 23.40907083 -6 24 C-6.33 23.34 -6.66 22.68 -7 22 C-3.68885166 20.87119943 -0.41021743 19.78697325 3 19 C2.855625 18.34 2.71125 17.68 2.5625 17 C1.87700084 13.34400449 1.43824485 9.69377805 1 6 C-0.32 5.67 -1.64 5.34 -3 5 C-2.34 4.67 -1.68 4.34 -1 4 C-0.34786708 1.97536745 -0.34786708 1.97536745 0 0 Z " fill="#AC5E31" transform="translate(87,79)"/>
<path d="M0 0 C1.32 0.33 2.64 0.66 4 1 C4.25213236 7.58345599 4.52721351 14.80117441 2 21 C0.109375 22.15625 0.109375 22.15625 -2 23 C-2.99 23.66 -3.98 24.32 -5 25 C-4.01 21.7 -3.02 18.4 -2 15 C-1.34 15 -0.68 15 0 15 C-0.185625 13.824375 -0.37125 12.64875 -0.5625 11.4375 C-1.08230996 7.38731406 -0.7502354 4.00125547 0 0 Z " fill="#9C552C" transform="translate(149,98)"/>
<path d="M0 0 C0 3.59857954 -0.95830515 5.09451118 -3 8 C-3.66 8 -4.32 8 -5 8 C-5 8.66 -5 9.32 -5 10 C-5.66 10 -6.32 10 -7 10 C-7 10.66 -7 11.32 -7 12 C-7.66 12 -8.32 12 -9 12 C-9 12.66 -9 13.32 -9 14 C-9.639375 14.268125 -10.27875 14.53625 -10.9375 14.8125 C-13.33131686 15.88667752 -13.33131686 15.88667752 -14 19 C-16.5625 20.1875 -16.5625 20.1875 -19 21 C-19 21.99 -19 22.98 -19 24 C-20.32 24.33 -21.64 24.66 -23 25 C-21.28032649 21.97009905 -19.70761694 19.23672704 -17 17 C-16.34 17 -15.68 17 -15 17 C-14.89558594 16.41734375 -14.79117188 15.8346875 -14.68359375 15.234375 C-13.89706383 12.66354577 -12.82434109 11.2659942 -11.0625 9.25 C-10.53785156 8.63640625 -10.01320312 8.0228125 -9.47265625 7.390625 C-8 6 -8 6 -6 6 C-6 5.34 -6 4.68 -6 4 C-4.03852126 2.61061923 -2.03833424 1.2739589 0 0 Z " fill="#482616" transform="translate(140,140)"/>
<path d="M0 0 C0.33 0 0.66 0 1 0 C1.66 5.61 2.32 11.22 3 17 C4.32 15.35 5.64 13.7 7 12 C8.32 12 9.64 12 11 12 C11 14.31 11 16.62 11 19 C10.34 18.34 9.68 17.68 9 17 C7.68 17.33 6.36 17.66 5 18 C4.34 20.64 3.68 23.28 3 26 C2.67 26 2.34 26 2 26 C1.67 28.31 1.34 30.62 1 33 C-1.29771877 29.37697587 -1.16171042 26.48699754 -0.9765625 22.265625 C-0.925 20.97011719 -0.8734375 19.67460938 -0.8203125 18.33984375 C-0.75544062 16.97655143 -0.69033347 15.61327028 -0.625 14.25 C-0.56672442 12.87113498 -0.50942192 11.49222847 -0.453125 10.11328125 C-0.31165822 6.74165628 -0.16024172 3.37077634 0 0 Z " fill="#65331B" transform="translate(153,84)"/>
<path d="M0 0 C1.7325 0.7425 1.7325 0.7425 3.5 1.5 C8.04990225 3.02627882 12.42440395 3.30374431 17.1875 3.3125 C17.86425781 3.31765625 18.54101562 3.3228125 19.23828125 3.328125 C23.5119388 3.26946696 27.02599071 2.55128512 31 1 C26.23790406 6.48362563 21.70916047 7.94462157 14.625 8.5 C9.08127436 8.40474698 5.09956759 5.53221672 1 2 C0.67 1.34 0.34 0.68 0 0 Z " fill="#582510" transform="translate(82,151)"/>
<path d="M0 0 C0 0.33 0 0.66 0 1 C-6.435 1.495 -6.435 1.495 -13 2 C-12.67 3.32 -12.34 4.64 -12 6 C-12.99 7.485 -12.99 7.485 -14 9 C-18.56756196 8.1216227 -20.52067674 7.614517 -23.4375 3.875 C-23.953125 2.92625 -24.46875 1.9775 -25 1 C-16.65667456 -0.19190363 -8.40676978 -0.09283549 0 0 Z " fill="#A75533" transform="translate(101,144)"/>
<path d="M0 0 C0.66 0.66 1.32 1.32 2 2 C1.44444444 6.55555556 1.44444444 6.55555556 0 8 C-1.49738124 8.0979057 -2.99942892 8.12974864 -4.5 8.125 C-5.3146875 8.12757812 -6.129375 8.13015625 -6.96875 8.1328125 C-9 8 -9 8 -10 7 C-10.04063832 5.33382885 -10.042721 3.66611905 -10 2 C-6.52254801 0.41030766 -3.83557374 -0.41465662 0 0 Z " fill="#D0794B" transform="translate(105,110)"/>
<path d="M0 0 C0.495 1.485 0.495 1.485 1 3 C-3.75 6 -3.75 6 -6 6 C-6.33 6.66 -6.66 7.32 -7 8 C-10.67658724 9.22552908 -14.10751116 9.22256946 -17.9375 9.25 C-18.65357422 9.270625 -19.36964844 9.29125 -20.10742188 9.3125 C-24.45866258 9.34476128 -26.78937287 8.94990335 -30 6 C-30.99 5.67 -31.98 5.34 -33 5 C-33 4.34 -33 3.68 -33 3 C-32.32453125 3.20496094 -31.6490625 3.40992188 -30.953125 3.62109375 C-30.06109375 3.89050781 -29.1690625 4.15992188 -28.25 4.4375 C-27.36828125 4.70433594 -26.4865625 4.97117188 -25.578125 5.24609375 C-24.72734375 5.49488281 -23.8765625 5.74367187 -23 6 C-22.31679687 6.21011719 -21.63359375 6.42023438 -20.9296875 6.63671875 C-13.64965497 8.00725119 -6.1275117 3.3515826 0 0 Z " fill="#573321" transform="translate(116,165)"/>
<path d="M0 0 C-0.33 0.66 -0.66 1.32 -1 2 C-15.52 2 -30.04 2 -45 2 C-45 1.34 -45 0.68 -45 0 C-39.39567785 -0.33591656 -33.7907732 -0.65695524 -28.18481445 -0.96435547 C-26.27865808 -1.07096413 -24.37272266 -1.18160435 -22.46704102 -1.29638672 C-19.72460566 -1.46086133 -16.98169737 -1.61072531 -14.23828125 -1.7578125 C-12.96456413 -1.83891769 -12.96456413 -1.83891769 -11.66511536 -1.92166138 C-7.26124385 -2.14278994 -4.01425976 -2.11952916 0 0 Z " fill="#622612" transform="translate(121,143)"/>
<path d="M0 0 C0.33 0.66 0.66 1.32 1 2 C1.66 2 2.32 2 3 2 C3.33 1.34 3.66 0.68 4 0 C5.31223496 3.93670488 4.24296256 6.12488144 3 10 C3.66 10 4.32 10 5 10 C4.67 11.65 4.34 13.3 4 15 C4.66 15.33 5.32 15.66 6 16 C5.34 17.98 4.68 19.96 4 22 C3.34 21.67 2.68 21.34 2 21 C-0.01701292 14.13966592 -0.27714317 7.09794446 0 0 Z " fill="#864623" transform="translate(47,102)"/>
<path d="M0 0 C2.97 0.495 2.97 0.495 6 1 C5.9071875 2.1446875 5.9071875 2.1446875 5.8125 3.3125 C5.74101915 6.04525312 5.74101915 6.04525312 7.5 7.8125 C7.995 8.204375 8.49 8.59625 9 9 C8.0925 8.835 7.185 8.67 6.25 8.5 C-3.48663411 7.19915415 -10.76869651 7.17988642 -19 13 C-18.5 10.6875 -18.5 10.6875 -17 8 C-10.45659755 4.48595054 -4.30135451 4.67143905 3 5 C2.01 3.35 1.02 1.7 0 0 Z " fill="#9B532D" transform="translate(76,82)"/>
<path d="M0 0 C0.33 0 0.66 0 1 0 C1.10655578 6.44070471 0.96205088 12.62641289 0 19 C1.98 18.67 3.96 18.34 6 18 C4.6875 19.5 4.6875 19.5 3 21 C2.01 21 1.02 21 0 21 C-0.33 22.32 -0.66 23.64 -1 25 C-1.33 23.68 -1.66 22.36 -2 21 C-2.66 21.33 -3.32 21.66 -4 22 C-4.17156976 16.93869207 -4.04654436 13.66157326 -2 9 C-1.25166149 6.01675866 -0.61701764 3.01288399 0 0 Z " fill="#1F0E08" transform="translate(152,113)"/>
<path d="M0 0 C3.00617269 3.00617269 2.59585316 5.82381598 3 10 C3.33 10 3.66 10 4 10 C4 13.3 4 16.6 4 20 C5.32 20.33 6.64 20.66 8 21 C4.04 22.98 4.04 22.98 0 25 C-0.19569589 22.43788925 -0.38180612 19.87567609 -0.5625 17.3125 C-0.61857422 16.59126953 -0.67464844 15.87003906 -0.73242188 15.12695312 C-1.00144895 11.19915777 -0.90381827 7.82281653 0 4 C0 2.68 0 1.36 0 0 Z " fill="#452314" transform="translate(154,71)"/>
<path d="M0 0 C0.66 0 1.32 0 2 0 C2.15855469 0.64066406 2.31710938 1.28132813 2.48046875 1.94140625 C4.11072403 7.98505981 6.19124444 12.0589117 10 17 C10 17.66 10 18.32 10 19 C11.32 19.66 12.64 20.32 14 21 C14 21.66 14 22.32 14 23 C15.32 23.66 16.64 24.32 18 25 C18 25.66 18 26.32 18 27 C17.34 27 16.68 27 16 27 C16 26.34 16 25.68 16 25 C15.278125 24.773125 14.55625 24.54625 13.8125 24.3125 C9.24302798 22.18007973 5.75428059 18.78440161 4 14 C4 13.01 4 12.02 4 11 C3.34 11 2.68 11 2 11 C1.34 7.37 0.68 3.74 0 0 Z " fill="#2F170C" transform="translate(50,125)"/>
<path d="M0 0 C4.1450081 0.23913508 6.36325249 0.42692724 9.5 3.25 C11 6 11 6 10.75 8.8125 C10.5025 9.534375 10.255 10.25625 10 11 C4.61509359 11.91657981 -0.54230189 12.11138159 -6 12 C-6 11.67 -6 11.34 -6 11 C-2.7 10.34 0.6 9.68 4 9 C4.33 7.35 4.66 5.7 5 4 C3.35 2.68 1.7 1.36 0 0 Z " fill="#BF6535" transform="translate(101,108)"/>
<path d="M0 0 C0.99 0 1.98 0 3 0 C1.35933324 5.2361705 -0.40273528 10.14424423 -3 15 C-3.5878125 16.175625 -3.5878125 16.175625 -4.1875 17.375 C-4.455625 17.91125 -4.72375 18.4475 -5 19 C-5.66 18.67 -6.32 18.34 -7 18 C-6.11728488 10.71430657 -5.01751775 5.50703168 0 0 Z " fill="#98522A" transform="translate(148,120)"/>
<path d="M0 0 C2.97 0.495 2.97 0.495 6 1 C5.484375 1.53625 4.96875 2.0725 4.4375 2.625 C2.67394455 5.00496499 2.67394455 5.00496499 3.3125 8.25 C3.539375 9.1575 3.76625 10.065 4 11 C1.36 11 -1.28 11 -4 11 C-3.39301257 6.87248551 -1.96189209 3.6678852 0 0 Z " fill="#BB6333" transform="translate(91,108)"/>
<path d="M0 0 C5.56962025 3.13924051 5.56962025 3.13924051 7 6 C5.02 6.66 3.04 7.32 1 8 C1.33 7.01 1.66 6.02 2 5 C-2.68493876 2.51112628 -5.9444214 3.14312227 -11 4 C-10.625 2.0625 -10.625 2.0625 -10 0 C-6.73441422 -1.63279289 -3.42648793 -0.8391399 0 0 Z " fill="#504A47" transform="translate(135,92)"/>
<path d="M0 0 C3.92331434 0.22418939 4.96128088 0.95952092 7.75 3.875 C10 7 10 7 11 10 C7 8 7 8 5.14355469 6.94189453 C2.72335231 5.87843886 1.08455126 5.76912769 -1.546875 5.8046875 C-2.39121094 5.81113281 -3.23554688 5.81757812 -4.10546875 5.82421875 C-5.41451172 5.84935547 -5.41451172 5.84935547 -6.75 5.875 C-8.08224609 5.88853516 -8.08224609 5.88853516 -9.44140625 5.90234375 C-11.62788058 5.92585423 -13.81380094 5.95871501 -16 6 C-12.52899863 3.68599909 -10.67660148 3.62716967 -6.5625 3.375 C-5.42941406 3.30023438 -4.29632813 3.22546875 -3.12890625 3.1484375 C-0.75475925 3.03580631 1.62318285 3 4 3 C2.68 2.01 1.36 1.02 0 0 Z " fill="#150A06" transform="translate(135,76)"/>
<path d="M0 0 C0.33 0 0.66 0 1 0 C1.19249739 4.21706244 1.37118014 8.43441599 1.53710938 12.65258789 C1.59549105 14.08731756 1.65763834 15.52189917 1.72363281 16.95629883 C1.8178682 19.01876872 1.89852573 21.0813928 1.9765625 23.14453125 C2.02893066 24.38565674 2.08129883 25.62678223 2.13525391 26.90551758 C2 30 2 30 0 33 C0 29.04 0 25.08 0 21 C-0.66 21 -1.32 21 -2 21 C-3.06775224 19.03533587 -4.06553465 17.03144641 -5 15 C-4.67 14.34 -4.34 13.68 -4 13 C-3.34 13.66 -2.68 14.32 -2 15 C-0.05909174 13.05909174 -0.60080565 9.52706098 -0.4375 6.9375 C-0.35371094 5.64714844 -0.26992188 4.35679688 -0.18359375 3.02734375 C-0.12300781 2.02832031 -0.06242187 1.02929688 0 0 Z " fill="#4D220F" transform="translate(46,86)"/>
<path d="M0 0 C1.95803507 -0.05389087 3.91648909 -0.09274217 5.875 -0.125 C7.51082031 -0.15980469 7.51082031 -0.15980469 9.1796875 -0.1953125 C12 0 12 0 14 2 C9.49719929 6.87554911 5.97404453 8.7500437 -0.6875 9.0546875 C-3.22888149 8.99458726 -5.5601982 8.73194054 -8 8 C-8 7.67 -8 7.34 -8 7 C-3.05 6.34 1.9 5.68 7 5 C6.67 4.01 6.34 3.02 6 2 C3.03 1.505 3.03 1.505 0 1 C0 0.67 0 0.34 0 0 Z " fill="#C76D4A" transform="translate(101,144)"/>
<path d="M0 0 C2.0625 0.4375 2.0625 0.4375 4 1 C3.01 1.66 2.02 2.32 1 3 C5.29 3.33 9.58 3.66 14 4 C14 4.33 14 4.66 14 5 C13.11957031 5.03738281 12.23914063 5.07476562 11.33203125 5.11328125 C10.17058594 5.17902344 9.00914063 5.24476562 7.8125 5.3125 C6.66394531 5.37050781 5.51539062 5.42851563 4.33203125 5.48828125 C0.81514444 6.02838931 -1.08005524 7.03824091 -4 9 C-4.99 9.33 -5.98 9.66 -7 10 C-6.52727227 5.74545047 -4.03562624 3.80795427 -1 1 C-0.67 0.67 -0.34 0.34 0 0 Z " fill="#0D0503" transform="translate(61,76)"/>
<path d="M0 0 C-0.32222187 3.0074041 -1.00776762 4.00776762 -3.1875 6.1875 C-6.23053519 8.14856712 -8.42681564 8.66761076 -12 9 C-9.94195865 3.44328837 -5.88351438 0 0 0 Z " fill="#B15C38" transform="translate(119,145)"/>
<path d="M0 0 C-1.76825142 1.14981374 -3.53969521 2.29471922 -5.3125 3.4375 C-6.79169922 4.39462891 -6.79169922 4.39462891 -8.30078125 5.37109375 C-11 7 -11 7 -14 8 C-14 8.99 -14 9.98 -14 11 C-14.66 11 -15.32 11 -16 11 C-16 9.02 -16 7.04 -16 5 C-14.41925436 4.18247697 -12.83528777 3.37118003 -11.25 2.5625 C-10.36828125 2.11003906 -9.4865625 1.65757812 -8.578125 1.19140625 C-2.88188976 -1.44094488 -2.88188976 -1.44094488 0 0 Z " fill="#6F381C" transform="translate(88,134)"/>
<path d="M0 0 C1.32 0.66 2.64 1.32 4 2 C4 2.99 4 3.98 4 5 C2.02 5.99 2.02 5.99 0 7 C0.66 7.66 1.32 8.32 2 9 C-2.79300133 10.39151652 -7.15135782 9.68662689 -12 9 C-11.67 8.34 -11.34 7.68 -11 7 C-8.97456444 6.74280183 -6.94649776 6.49157878 -4.91015625 6.34375 C-2.76477844 6.14523788 -2.76477844 6.14523788 -1 4 C-0.3574765 1.93125966 -0.3574765 1.93125966 0 0 Z " fill="#B2704A" transform="translate(81,95)"/>
<path d="M0 0 C21.24663835 -1.18893106 21.24663835 -1.18893106 30 6 C30.33 6.66 30.66 7.32 31 8 C28.09800355 7.38364677 25.82950524 6.44963931 23.25 5 C19.22559038 2.94703229 15.47588341 2.29786965 11 2 C8.99980871 1.8145518 6.99981311 1.62698293 5 1.4375 C3.33345185 1.29031844 1.66682531 1.1440088 0 1 C0 0.67 0 0.34 0 0 Z " fill="#D5834D" transform="translate(90,134)"/>
<path d="M0 0 C0.33 0.66 0.66 1.32 1 2 C1.66 2 2.32 2 3 2 C3.33 7.28 3.66 12.56 4 18 C2.35 18 0.7 18 -1 18 C-1 17.34 -1 16.68 -1 16 C-0.34 16 0.32 16 1 16 C0.67 15.01 0.34 14.02 0 13 C-0.06937062 10.77181559 -0.08457084 8.54165476 -0.0625 6.3125 C-0.05347656 5.13300781 -0.04445312 3.95351562 -0.03515625 2.73828125 C-0.02355469 1.83464844 -0.01195312 0.93101563 0 0 Z " fill="#8A431F" transform="translate(43,105)"/>
<path d="M0 0 C0 0.66 0 1.32 0 2 C-1.60256108 2.50512244 -3.20711792 3.00391627 -4.8125 3.5 C-6.15248047 3.91765625 -6.15248047 3.91765625 -7.51953125 4.34375 C-10 5 -10 5 -13 5 C-13.19335938 5.63808594 -13.38671875 6.27617188 -13.5859375 6.93359375 C-13.84632812 7.75988281 -14.10671875 8.58617187 -14.375 9.4375 C-14.75785156 10.67306641 -14.75785156 10.67306641 -15.1484375 11.93359375 C-16 14 -16 14 -18 15 C-17.93967927 13.5613506 -17.85079867 12.12388098 -17.75 10.6875 C-17.70359375 9.88699219 -17.6571875 9.08648437 -17.609375 8.26171875 C-17 6 -17 6 -15.3046875 4.3125 C-12.69189534 2.82453701 -10.28684126 2.05419541 -7.375 1.3125 C-6.41335937 1.06113281 -5.45171875 0.80976562 -4.4609375 0.55078125 C-2 0 -2 0 0 0 Z " fill="#914E26" transform="translate(73,42)"/>
<path d="M0 0 C0.33 0.66 0.66 1.32 1 2 C2.85625 1.62875 2.85625 1.62875 4.75 1.25 C6.859375 0.828125 6.859375 0.828125 9 1 C11.265625 2.984375 11.265625 2.984375 13 5 C11.02145742 5.19397476 9.0421352 5.38001321 7.0625 5.5625 C5.40927734 5.71912109 5.40927734 5.71912109 3.72265625 5.87890625 C2.37494141 5.93884766 2.37494141 5.93884766 1 6 C0 5 0 5 -0.0625 2.4375 C-0.041875 1.633125 -0.02125 0.82875 0 0 Z " fill="#521E09" transform="translate(83,120)"/>
<path d="M0 0 C0.66 1.32 1.32 2.64 2 4 C2.598125 3.835 3.19625 3.67 3.8125 3.5 C6 3 6 3 9 3 C8.34 4.32 7.68 5.64 7 7 C-0.4422658 7.36601307 -0.4422658 7.36601307 -3 5.6875 C-4 4 -4 4 -4 1 C-2 0 -2 0 0 0 Z " fill="#3F2110" transform="translate(71,95)"/>
<path d="M0 0 C0.66 0.33 1.32 0.66 2 1 C1.75 3.875 1.75 3.875 1 7 C-0.31647119 7.69937532 -1.65022151 8.36729133 -3 9 C-3.81171228 11.55519921 -3.81171228 11.55519921 -4 14 C-4.66 14 -5.32 14 -6 14 C-6.33 15.32 -6.66 16.64 -7 18 C-8 16 -8 16 -7.44140625 14.0546875 C-7.00634766 12.97574219 -7.00634766 12.97574219 -6.5625 11.875 C-6.27503906 11.15054688 -5.98757812 10.42609375 -5.69140625 9.6796875 C-5.46324219 9.12539063 -5.23507813 8.57109375 -5 8 C-4.34 8 -3.68 8 -3 8 C-2.690625 6.865625 -2.38125 5.73125 -2.0625 4.5625 C-1 1 -1 1 0 0 Z " fill="#210F07" transform="translate(54,49)"/>
<path d="M0 0 C0.83250492 2.34756045 1.20578628 3.51471296 0.21484375 5.8515625 C-2.74730986 9.96415498 -4.8264411 11.91716209 -10 13 C-10 12.01 -10 11.02 -10 10 C-8.68 9.67 -7.36 9.34 -6 9 C-6 8.01 -6 7.02 -6 6 C-5.195625 5.7525 -4.39125 5.505 -3.5625 5.25 C-0.828919 4.27761141 -0.828919 4.27761141 -0.1875 1.875 C-0.125625 1.25625 -0.06375 0.6375 0 0 Z " fill="#321C12" transform="translate(127,155)"/>
<path d="M0 0 C0.33 0 0.66 0 1 0 C1.68798044 17.68364544 1.68798044 17.68364544 -2 24 C-4.109375 24.76171875 -4.109375 24.76171875 -6 25 C-5.731875 24.360625 -5.46375 23.72125 -5.1875 23.0625 C-4.795625 22.051875 -4.40375 21.04125 -4 20 C-3.62101563 19.03513672 -3.62101563 19.03513672 -3.234375 18.05078125 C-1.04466295 12.07200863 -0.34365463 6.3398354 0 0 Z " fill="#C16C3D" transform="translate(165,99)"/>
<path d="M0 0 C0.79921875 0.01804688 1.5984375 0.03609375 2.421875 0.0546875 C3.02515625 0.07789063 3.6284375 0.10109375 4.25 0.125 C4.25 0.455 4.25 0.785 4.25 1.125 C0.29 2.115 -3.67 3.105 -7.75 4.125 C-7.75 4.455 -7.75 4.785 -7.75 5.125 C-5.11 5.455 -2.47 5.785 0.25 6.125 C0.25 6.455 0.25 6.785 0.25 7.125 C-4.37 7.125 -8.99 7.125 -13.75 7.125 C-9.34633392 2.4766858 -6.5322273 -0.19212433 0 0 Z " fill="#7E3A22" transform="translate(91.75,135.875)"/>
<path d="M0 0 C1.32 0 2.64 0 4 0 C4 2.31 4 4.62 4 7 C3.34 6.34 2.68 5.68 2 5 C0.68 5.33 -0.64 5.66 -2 6 C-2.66 8.64 -3.32 11.28 -4 14 C-6 11 -6 11 -5.875 9.1875 C-4.5300077 5.82501924 -2.57442498 2.57442498 0 0 Z " fill="#61250C" transform="translate(160,96)"/>
<path d="M0 0 C2 1 2 1 2.625 2.5625 C3.16368951 6.06398181 3.05903219 9.45806833 3 13 C-1.41225737 14.47075246 -4.48281619 15.36884358 -9 14 C-5.77484237 12.26337666 -2.48670834 11.1094072 1 10 C0.67 6.7 0.34 3.4 0 0 Z " fill="#9C5228" transform="translate(89,88)"/>
<path d="M0 0 C3.01568405 2.85696384 5.24831333 5.24638571 7 9 C7.556875 9.495 8.11375 9.99 8.6875 10.5 C9.120625 10.995 9.55375 11.49 10 12 C9.6875 14.1875 9.6875 14.1875 9 16 C8.67 15.01 8.34 14.02 8 13 C6.3890902 11.59117461 6.3890902 11.59117461 4.5 10.25 C1.43972937 7.75922758 1.04885567 7.20193678 0.0625 3.125 C0.041875 2.09375 0.02125 1.0625 0 0 Z " fill="#422213" transform="translate(144,55)"/>
<path d="M0 0 C0 0.33 0 0.66 0 1 C-0.64066406 1.08636719 -1.28132813 1.17273438 -1.94140625 1.26171875 C-8.30642359 2.29567835 -11.96489915 4.0138785 -17 8 C-17.66 8 -18.32 8 -19 8 C-19.33 8.66 -19.66 9.32 -20 10 C-20.33 9.01 -20.66 8.02 -21 7 C-7.55125285 -2.3690205 -7.55125285 -2.3690205 0 0 Z " fill="#B16333" transform="translate(95,135)"/>
<path d="M0 0 C3.046875 0.27734375 3.046875 0.27734375 6.75 0.9375 C11.52779604 1.78632121 15.24543805 2.05737958 20 1 C15.87720431 3.74853046 11.93338723 4.681031 7 5 C3.82361405 4.35070934 0.95325687 3.32682555 -2 2 C-1.34 1.34 -0.68 0.68 0 0 Z " fill="#935633" transform="translate(89,168)"/>
<path d="M0 0 C0.86625 0.3403125 0.86625 0.3403125 1.75 0.6875 C0.37673398 4.80729807 -2.33595092 7.73047546 -6.25 9.6875 C-6.5 6.375 -6.5 6.375 -6.25 2.6875 C-4.13578911 0.27125898 -3.2149628 -0.44652261 0 0 Z " fill="#BC6735" transform="translate(161.25,92.3125)"/>
<path d="M0 0 C0.515625 0.2475 1.03125 0.495 1.5625 0.75 C0.5725 1.245 0.5725 1.245 -0.4375 1.75 C-0.7675 2.41 -1.0975 3.07 -1.4375 3.75 C-3.08113134 4.47159424 -4.74800386 5.14351421 -6.4375 5.75 C-5.7775 7.07 -5.1175 8.39 -4.4375 9.75 C-6.9125 8.76 -6.9125 8.76 -9.4375 7.75 C-9.4375 6.43 -9.4375 5.11 -9.4375 3.75 C-3.0375 -0.31153846 -3.0375 -0.31153846 0 0 Z " fill="#24140C" transform="translate(68.4375,91.25)"/>
<path d="M0 0 C3.5625 0.125 3.5625 0.125 5.5625 1.125 C5.2325 2.115 4.9025 3.105 4.5625 4.125 C1.9225 4.455 -0.7175 4.785 -3.4375 5.125 C-4 3.1875 -4 3.1875 -4.4375 1.125 C-3.4375 0.125 -3.4375 0.125 0 0 Z " fill="#A8583D" transform="translate(103.4375,136.875)"/>
<path d="M0 0 C1.65 0.33 3.3 0.66 5 1 C4.34 2.32 3.68 3.64 3 5 C3.99 5.33 4.98 5.66 6 6 C4.3125 8.5 4.3125 8.5 2 11 C-0.75 11.3125 -0.75 11.3125 -3 11 C-1.68 10.34 -0.36 9.68 1 9 C0.34414811 5.39007621 0.34414811 5.39007621 -1 2 C-0.67 1.34 -0.34 0.68 0 0 Z " fill="#AE5D31" transform="translate(156,119)"/>
<path d="M0 0 C0.4125 0.556875 0.825 1.11375 1.25 1.6875 C1.8275 2.450625 2.405 3.21375 3 4 C3.639375 4.886875 4.27875 5.77375 4.9375 6.6875 C7.044588 9.04999261 7.92189622 9.67020317 11 10 C11.33 8.68 11.66 7.36 12 6 C12 8.31 12 10.62 12 13 C7.15175132 12.58443583 5.11963138 10.62551755 2 7 C0.31763469 4.27617044 0 3.26115629 0 0 Z " fill="#5A2A12" transform="translate(36,121)"/>
<path d="M0 0 C0.33 0 0.66 0 1 0 C1.125 2.875 1.125 2.875 1 6 C-1 8 -1 8 -3.09375 8.01171875 C-3.8878125 7.90472656 -4.681875 7.79773438 -5.5 7.6875 C-6.69109375 7.53861328 -6.69109375 7.53861328 -7.90625 7.38671875 C-10 7 -10 7 -12 6 C-10.3125 4.4375 -10.3125 4.4375 -8 3 C-5.375 3.3125 -5.375 3.3125 -3 4 C-2.34 4 -1.68 4 -1 4 C-0.67 2.68 -0.34 1.36 0 0 Z " fill="#501C0A" transform="translate(113,118)"/>
<path d="M0 0 C1.86503979 3.17126616 2.04145386 3.78142512 1.3125 7.625 C0 11 0 11 -3 13 C-4.00821159 10.31143576 -4.22736824 8.58296785 -3.17578125 5.88671875 C-2.16604698 3.89205069 -1.11893353 1.9353228 0 0 Z " fill="#532711" transform="translate(54,56)"/>
<path d="M0 0 C1 2 1 2 -0.125 5.5 C-2 9 -2 9 -4.6875 10.4375 C-5.8321875 10.7159375 -5.8321875 10.7159375 -7 11 C-7 11.99 -7 12.98 -7 14 C-8.32 14.33 -9.64 14.66 -11 15 C-9.28032649 11.97009905 -7.70761694 9.23672704 -5 7 C-4.34 7 -3.68 7 -3 7 C-2.87625 6.401875 -2.7525 5.80375 -2.625 5.1875 C-2 3 -2 3 0 0 Z " fill="#713E23" transform="translate(128,150)"/>
<path d="M0 0 C0.60328125 0.08378906 1.2065625 0.16757813 1.828125 0.25390625 C3.02695313 0.40666016 3.02695313 0.40666016 4.25 0.5625 C5.03890625 0.66691406 5.8278125 0.77132812 6.640625 0.87890625 C9.00532874 1.00027349 10.7511037 0.69633257 13 0 C11.4198632 2.15473199 9.89353366 4.10646634 8 6 C5.375 5.625 5.375 5.625 3 5 C3 4.34 3 3.68 3 3 C1.54166642 1.37485532 1.54166642 1.37485532 0 0 Z " fill="#773314" transform="translate(92,121)"/>
<path d="M0 0 C1.875 0.75 1.875 0.75 4 2 C4.268125 2.680625 4.53625 3.36125 4.8125 4.0625 C5.204375 4.701875 5.59625 5.34125 6 6 C9.56206661 6.81870185 9.56206661 6.81870185 13 7 C13 7.33 13 7.66 13 8 C11.39667209 8.08121924 9.79215974 8.13929134 8.1875 8.1875 C7.29417969 8.22230469 6.40085937 8.25710937 5.48046875 8.29296875 C3 8 3 8 1.1875 6.65625 C-0.43567041 4.39235443 -0.2202914 2.71692729 0 0 Z " fill="#442C1F" transform="translate(117,94)"/>
<path d="M0 0 C0.66 0.33 1.32 0.66 2 1 C-1.88309282 4.64775386 -4.71201818 5.58525633 -10 6 C-10 5.67 -10 5.34 -10 5 C-12.64 4.67 -15.28 4.34 -18 4 C-18 3.67 -18 3.34 -18 3 C-17.03578125 2.95101562 -16.0715625 2.90203125 -15.078125 2.8515625 C-13.81484375 2.77679688 -12.5515625 2.70203125 -11.25 2.625 C-9.99703125 2.55539063 -8.7440625 2.48578125 -7.453125 2.4140625 C-4.33451506 2.04011153 -2.69011979 1.44562512 0 0 Z " fill="#753419" transform="translate(111,152)"/>
<path d="M0 0 C2.0625 0.4375 2.0625 0.4375 4 1 C4 3.31 4 5.62 4 8 C1.525 7.01 1.525 7.01 -1 6 C-1.042721 4.33388095 -1.04063832 2.66617115 -1 1 C-0.67 0.67 -0.34 0.34 0 0 Z " fill="#AD6136" transform="translate(43,122)"/>
<path d="M0 0 C2.5 1.125 2.5 1.125 5 3 C5.3125 6.1875 5.3125 6.1875 5 9 C4.01 9 3.02 9 2 9 C0.14223235 5.86501708 -0.20140476 3.62528568 0 0 Z " fill="#B3633A" transform="translate(38,110)"/>
<path d="M0 0 C0.28875 0.61875 0.5775 1.2375 0.875 1.875 C1.93720042 4.13325765 1.93720042 4.13325765 4 6 C6.43252661 6.46162427 6.43252661 6.46162427 9.125 6.625 C10.03507812 6.69976562 10.94515625 6.77453125 11.8828125 6.8515625 C12.58148438 6.90054688 13.28015625 6.94953125 14 7 C14 7.33 14 7.66 14 8 C10.04 8 6.08 8 2 8 C1.67 7.34 1.34 6.68 1 6 C-1.02463255 5.34786708 -1.02463255 5.34786708 -3 5 C-1.125 1.125 -1.125 1.125 0 0 Z " fill="#D9B49E" transform="translate(116,95)"/>
<path d="M0 0 C1.32 0.66 2.64 1.32 4 2 C4 4.64 4 7.28 4 10 C1.4375 7.8125 1.4375 7.8125 -1 5 C-0.8125 2.1875 -0.8125 2.1875 0 0 Z " fill="#A5562A" transform="translate(41,93)"/>
<path d="M0 0 C1.3921875 0.3403125 1.3921875 0.3403125 2.8125 0.6875 C2.8125 1.0175 2.8125 1.3475 2.8125 1.6875 C1.884375 1.935 0.95625 2.1825 0 2.4375 C-3.53407028 3.82340992 -4.54463207 4.31529742 -6.1875 7.6875 C-6.71453112 10.67917666 -6.99971096 13.65697342 -7.1875 16.6875 C-7.5175 16.6875 -7.8475 16.6875 -8.1875 16.6875 C-8.24187607 15.10455218 -8.28046271 13.52105744 -8.3125 11.9375 C-8.33570312 11.05578125 -8.35890625 10.1740625 -8.3828125 9.265625 C-8.12063751 5.80491514 -6.87527659 3.68477606 -4.9375 0.875 C-3.1875 -0.3125 -3.1875 -0.3125 0 0 Z " fill="#B36132" transform="translate(114.1875,83.3125)"/>
<path d="M0 0 C0.66 0.66 1.32 1.32 2 2 C1.195625 2.763125 0.39125 3.52625 -0.4375 4.3125 C-3.16799024 6.79430898 -3.16799024 6.79430898 -4 10 C-2.35 9.01 -0.7 8.02 1 7 C0.25 8.9375 0.25 8.9375 -1 11 C-3.125 11.75 -3.125 11.75 -5 12 C-5.75 10.375 -5.75 10.375 -6 8 C-4.24107963 4.96737867 -2.47809712 2.47809712 0 0 Z " fill="#A1562A" transform="translate(58,76)"/>
<path d="M0 0 C0.33 0 0.66 0 1 0 C1 1.98 1 3.96 1 6 C5.43090471 4.79157144 7.98112756 3.48331435 11 0 C9.375 5.75 9.375 5.75 6 8 C2.8125 8.125 2.8125 8.125 0 8 C0 5.36 0 2.72 0 0 Z " fill="#773C1E" transform="translate(152,124)"/>
<path d="M0 0 C0.66 0.66 1.32 1.32 2 2 C0.75 3.5625 0.75 3.5625 -1 5 C-3.1875 4.6875 -3.1875 4.6875 -5 4 C-4.67 3.67 -4.34 3.34 -4 3 C-6.97 2.505 -6.97 2.505 -10 2 C-6.60535554 -0.08901197 -3.95158471 -0.34361606 0 0 Z " fill="#B06338" transform="translate(95,125)"/>
<path d="M0 0 C1.32 0.33 2.64 0.66 4 1 C4.33 2.65 4.66 4.3 5 6 C3.35 6.33 1.7 6.66 0 7 C0 4.69 0 2.38 0 0 Z " fill="#C17041" transform="translate(153,122)"/>
<path d="M0 0 C2.4375 1.25 2.4375 1.25 5 3 C5.36162029 4.32594105 5.69728039 5.65938457 6 7 C7.9837767 8.28436734 7.9837767 8.28436734 10 9 C10 9.66 10 10.32 10 11 C10.66 11 11.32 11 12 11 C12.33 11.99 12.66 12.98 13 14 C12.34 14 11.68 14 11 14 C11 13.34 11 12.68 11 12 C10.34 12 9.68 12 9 12 C7.59765625 10.57421875 7.59765625 10.57421875 6.0625 8.6875 C4.53380697 6.82257269 3.05873648 5.05575218 1.30859375 3.39453125 C0 2 0 2 0 0 Z " fill="#874724" transform="translate(59,140)"/>
<path d="M0 0 C0.66 0 1.32 0 2 0 C1.67 1.65 1.34 3.3 1 5 C1.66 5.33 2.32 5.66 3 6 C2.34 7.98 1.68 9.96 1 12 C0.34 11.67 -0.32 11.34 -1 11 C-1.14285714 3.57142857 -1.14285714 3.57142857 0 0 Z " fill="#914D26" transform="translate(50,112)"/>
<path d="M0 0 C3 0 3 0 4.6875 1.25 C6 3 6 3 6 7 C6.99 7.33 7.98 7.66 9 8 C9.33 9.65 9.66 11.3 10 13 C9.67 12.34 9.34 11.68 9 11 C8.01 10.67 7.02 10.34 6 10 C4.6484375 8.22265625 4.6484375 8.22265625 3.375 6.0625 C2.94960937 5.35222656 2.52421875 4.64195313 2.0859375 3.91015625 C1.35584537 2.62592944 0.66064711 1.32129422 0 0 Z " fill="#29160D" transform="translate(144,54)"/>
<path d="M0 0 C0 0.66 0 1.32 0 2 C2.97 2.495 2.97 2.495 6 3 C2.98968256 3.93423645 2.13349732 4.04449911 -1 3 C-2.89212737 2.77820215 -4.78884472 2.59385985 -6.6875 2.4375 C-7.68136719 2.35371094 -8.67523438 2.26992188 -9.69921875 2.18359375 C-10.83810547 2.09271484 -10.83810547 2.09271484 -12 2 C-12 1.67 -12 1.34 -12 1 C-7.53763531 -0.80619523 -4.68965706 -1.11658501 0 0 Z " fill="#4C2A19" transform="translate(122,38)"/>
<path d="M0 0 C2.475 0.99 2.475 0.99 5 2 C5 2.99 5 3.98 5 5 C3.02 5.66 1.04 6.32 -1 7 C-0.67 4.69 -0.34 2.38 0 0 Z " fill="#C6BFBB" transform="translate(132,94)"/>
<path d="M0 0 C0.33 2.31 0.66 4.62 1 7 C-0.98 6.34 -2.96 5.68 -5 5 C-5 4.01 -5 3.02 -5 2 C-2 0 -2 0 0 0 Z " fill="#CBC0B9" transform="translate(67,94)"/>
<path d="M0 0 C-2.83430453 3.2542015 -4.68607774 4.5206753 -9 5 C-9.33 3.68 -9.66 2.36 -10 1 C-6.59437148 0.22157062 -3.49234244 -0.09978121 0 0 Z M-12 2 C-11.01 2.495 -11.01 2.495 -10 3 C-10.99 3.495 -10.99 3.495 -12 4 C-12 3.34 -12 2.68 -12 2 Z " fill="#1E1410" transform="translate(108,176)"/>
<path d="M0 0 C0 0.99 0 1.98 0 3 C-0.99 3.33 -1.98 3.66 -3 4 C-3.33 4.99 -3.66 5.98 -4 7 C-6.4375 8.75 -6.4375 8.75 -9 10 C-9.66 9.67 -10.32 9.34 -11 9 C-9.625 7.5 -9.625 7.5 -8 6 C-7.34 6 -6.68 6 -6 6 C-6 5.34 -6 4.68 -6 4 C-4.03852126 2.61061923 -2.03833424 1.2739589 0 0 Z " fill="#6A381E" transform="translate(140,140)"/>
<path d="M0 0 C0.66 0 1.32 0 2 0 C2.19335938 0.67546875 2.38671875 1.3509375 2.5859375 2.046875 C2.84632812 2.93890625 3.10671875 3.8309375 3.375 4.75 C3.63023438 5.63171875 3.88546875 6.5134375 4.1484375 7.421875 C4.9209934 9.76080572 5.83625676 11.83442562 7 14 C6.01 14 5.02 14 4 14 C4 13.01 4 12.02 4 11 C3.34 11 2.68 11 2 11 C1.34 7.37 0.68 3.74 0 0 Z " fill="#542A15" transform="translate(50,125)"/>
<path d="M0 0 C5.53846154 0.49230769 5.53846154 0.49230769 7.875 3.0625 C8.431875 4.0215625 8.431875 4.0215625 9 5 C7.02 5.66 5.04 6.32 3 7 C3.33 6.01 3.66 5.02 4 4 C2.68 2.68 1.36 1.36 0 0 Z " fill="#170D08" transform="translate(133,93)"/>
<path d="M0 0 C0 3.58912412 -0.66436554 4.10857029 -3 6.6875 C-3.556875 7.31011719 -4.11375 7.93273437 -4.6875 8.57421875 C-5.120625 9.04472656 -5.55375 9.51523438 -6 10 C-6.66 9.01 -7.32 8.02 -8 7 C-6.68 6.67 -5.36 6.34 -4 6 C-3.67 4.35 -3.34 2.7 -3 1 C-2.01 0.67 -1.02 0.34 0 0 Z " fill="#271912" transform="translate(116,168)"/>
<path d="M0 0 C2.71224618 1.61268692 5.37352812 3.24901874 8 5 C8 6.32 8 7.64 8 9 C7.01 8.67 6.02 8.34 5 8 C5 7.34 5 6.68 5 6 C2.36 4.68 -0.28 3.36 -3 2 C-2.01 1.34 -1.02 0.68 0 0 Z " fill="#B46535" transform="translate(135,90)"/>
<path d="M0 0 C2.00720923 0.28674418 4.0085944 0.61866701 6 1 C6 1.66 6 2.32 6 3 C1.05 3 -3.9 3 -9 3 C-9 2.67 -9 2.34 -9 2 C-6.94921875 1.77213542 -4.8984375 1.54427083 -2.84765625 1.31640625 C-0.98859771 1.18113386 -0.98859771 1.18113386 0 0 Z " fill="#331B10" transform="translate(100,36)"/>
<path d="M0 0 C6.4 0.36923077 6.4 0.36923077 9.4375 3.5625 C9.953125 4.366875 10.46875 5.17125 11 6 C7.61121488 6 6.60242783 5.35638802 3.8125 3.5625 C2.73935547 2.88380859 2.73935547 2.88380859 1.64453125 2.19140625 C1.10183594 1.79824219 0.55914062 1.40507813 0 1 C0 0.67 0 0.34 0 0 Z " fill="#B25E30" transform="translate(101,108)"/>
<path d="M0 0 C1.6498275 0.42218816 3.29483665 0.86324425 4.9375 1.3125 C6.31228516 1.67794922 6.31228516 1.67794922 7.71484375 2.05078125 C8.46894531 2.36402344 9.22304687 2.67726562 10 3 C10.33 3.99 10.66 4.98 11 6 C6.87248551 5.39301257 3.6678852 3.96189209 0 2 C0 1.34 0 0.68 0 0 Z " fill="#4F2C1B" transform="translate(83,168)"/>
<path d="M0 0 C0.99 0.66 1.98 1.32 3 2 C2.34 4.64 1.68 7.28 1 10 C-0.98 9.01 -2.96 8.02 -5 7 C-5 6.67 -5 6.34 -5 6 C-3.02 6 -1.04 6 1 6 C0.67 4.02 0.34 2.04 0 0 Z " fill="#98481F" transform="translate(111,114)"/>
<path d="M0 0 C-0.33 0.66 -0.66 1.32 -1 2 C-3.64860427 2.59355614 -6.29197322 2.74209269 -9 3 C-9.33 2.01 -9.66 1.02 -10 0 C-6.30458414 -0.95024979 -3.69541586 -0.95024979 0 0 Z " fill="#716B68" transform="translate(83,93)"/>
<path d="M0 0 C-3.63 1.98 -7.26 3.96 -11 6 C-9 1 -9 1 -6.625 -0.375 C-4 -1 -4 -1 0 0 Z " fill="#813C1A" transform="translate(68,89)"/>
<path d="M0 0 C-2.97 1.65 -5.94 3.3 -9 5 C-9 4.34 -9 3.68 -9 3 C-9.66 2.67 -10.32 2.34 -11 2 C-9.54494642 1.47007308 -8.08581873 0.9513211 -6.625 0.4375 C-5.81289062 0.14746094 -5.00078125 -0.14257812 -4.1640625 -0.44140625 C-2 -1 -2 -1 0 0 Z " fill="#7B4022" transform="translate(88,134)"/>
<path d="M0 0 C3.125 -0.1875 3.125 -0.1875 6 0 C6 0.99 6 1.98 6 3 C3.36 3 0.72 3 -2 3 C-1.34 2.01 -0.68 1.02 0 0 Z " fill="#CA7D50" transform="translate(96,127)"/>
<path d="M0 0 C3.375 -0.125 3.375 -0.125 7 0 C7.66 0.66 8.32 1.32 9 2 C7.02 2.99 7.02 2.99 5 4 C5 4.99 5 5.98 5 7 C4.34 7 3.68 7 3 7 C3.66 5.02 4.32 3.04 5 1 C3.35 1 1.7 1 0 1 C0 0.67 0 0.34 0 0 Z " fill="#96512B" transform="translate(112,83)"/>
<path d="M0 0 C2.31 0 4.62 0 7 0 C7 0.99 7 1.98 7 3 C4.69 3 2.38 3 0 3 C0 2.01 0 1.02 0 0 Z " fill="#AB5D34" transform="translate(103,124)"/>
<path d="M0 0 C1.32 0.66 2.64 1.32 4 2 C3.01 2.33 2.02 2.66 1 3 C0.67 5.31 0.34 7.62 0 10 C-0.33 10 -0.66 10 -1 10 C-1.02689216 8.52093108 -1.04634621 7.04172517 -1.0625 5.5625 C-1.07410156 4.73878906 -1.08570313 3.91507812 -1.09765625 3.06640625 C-1 1 -1 1 0 0 Z " fill="#4C1705" transform="translate(37,96)"/>
<path d="M0 0 C1.98 0.99 1.98 0.99 4 2 C4 2.66 4 3.32 4 4 C5.32 4.66 6.64 5.32 8 6 C8 6.66 8 7.32 8 8 C7.34 8 6.68 8 6 8 C6 7.34 6 6.68 6 6 C5.195625 5.7525 4.39125 5.505 3.5625 5.25 C1 4 1 4 0.1875 1.875 C0.125625 1.25625 0.06375 0.6375 0 0 Z " fill="#4B2513" transform="translate(60,144)"/>
<path d="M0 0 C-0.33 1.65 -0.66 3.3 -1 5 C-2.32 5 -3.64 5 -5 5 C-4.625 3.0625 -4.625 3.0625 -4 1 C-2 0 -2 0 0 0 Z " fill="#CC7D54" transform="translate(161,114)"/>
<path d="M0 0 C2.4375 0.375 2.4375 0.375 5 1 C5.33 1.66 5.66 2.32 6 3 C5.01 3 4.02 3 3 3 C2.01 4.485 2.01 4.485 1 6 C1 5.34 1 4.68 1 4 C0.34 4 -0.32 4 -1 4 C-0.67 2.68 -0.34 1.36 0 0 Z " fill="#884420" transform="translate(38,91)"/>
<path d="M0 0 C0.66 0.33 1.32 0.66 2 1 C1.34 1.66 0.68 2.32 0 3 C0 3.99 0 4.98 0 6 C-1.98 6.99 -1.98 6.99 -4 8 C-3.40072174 4.64404172 -2.15377564 2.62198774 0 0 Z " fill="#1A0D06" transform="translate(58,78)"/>
<path d="M0 0 C0.66 0.66 1.32 1.32 2 2 C1.96712417 4.72869407 1.43602229 7.2966618 1 10 C-1 8 -1 8 -1.1875 4.4375 C-1 1 -1 1 0 0 Z " fill="#773F20" transform="translate(152,74)"/>
<path d="M0 0 C1.65 0 3.3 0 5 0 C5.33 0.99 5.66 1.98 6 3 C3.69 3 1.38 3 -1 3 C-0.67 2.01 -0.34 1.02 0 0 Z " fill="#DA9471" transform="translate(97,114)"/>
<path d="M0 0 C2.48862878 3.23521742 4.75421558 6.59260295 7 10 C6.01 10 5.02 10 4 10 C0 3.375 0 3.375 0 0 Z " fill="#683015" transform="translate(36,121)"/>
<path d="M0 0 C1.98 0.99 1.98 0.99 4 2 C4 2.99 4 3.98 4 5 C2.68 5 1.36 5 0 5 C0 3.35 0 1.7 0 0 Z " fill="#D5CDC8" transform="translate(81,95)"/>
<path d="M0 0 C0.33 0.99 0.66 1.98 1 3 C-0.97746603 3.73080266 -2.98072489 4.39421747 -5 5 C-5.66 4.67 -6.32 4.34 -7 4 C-4.69 2.68 -2.38 1.36 0 0 Z " fill="#6B3C24" transform="translate(116,165)"/>
<path d="M0 0 C0.66 0.33 1.32 0.66 2 1 C1.67 1.66 1.34 2.32 1 3 C2.65 3 4.3 3 6 3 C6 3.33 6 3.66 6 4 C3.36 4 0.72 4 -2 4 C-2 3.01 -2 2.02 -2 1 C-1.34 0.67 -0.68 0.34 0 0 Z " fill="#93472D" transform="translate(86,138)"/>
<path d="M0 0 C0.33 0 0.66 0 1 0 C1.25 3.3125 1.25 3.3125 1 7 C-0.32 7.99 -1.64 8.98 -3 10 C-2.01 6.7 -1.02 3.4 0 0 Z " fill="#AD5F32" transform="translate(147,113)"/>
<path d="M0 0 C-0.33 1.65 -0.66 3.3 -1 5 C-0.34 5.33 0.32 5.66 1 6 C-0.32 5.67 -1.64 5.34 -3 5 C-3.33 3.68 -3.66 2.36 -4 1 C-2 0 -2 0 0 0 Z " fill="#25130B" transform="translate(71,95)"/>
</svg>
